<svg xmlns="http://www.w3.org/2000/svg" xmlns:xlink="http://www.w3.org/1999/xlink" xmlns:lucid="lucid" width="2606" height="1396"><g transform="translate(420 -20)" lucid:page-tab-id="0_0"><path d="M-1857.8 0h5586v2633.8h-5586z" fill="#fff"/><path d="M400 798h380v240H400z" fill="#fff"/><path d="M400 894h380v48H400zM400 990h380v48H400z" fill="#e6e6e6"/><path d="M400 798h380v48H400z" fill="#ccc"/><path d="M400 798h380v240H400zM400 846h380M574 846v192M669.42 846v192" stroke="#333" fill="none"/><use xlink:href="#a" transform="matrix(1,0,0,1,410,798.0048525493821) translate(147.45987654320987 31.377777777777776)"/><use xlink:href="#b" transform="matrix(1,0,0,1,405,848.5048525493821) translate(11.2 28.877777777777776)"/><use xlink:href="#c" transform="matrix(1,0,0,1,579.0000000000143,848.5048525493821) translate(11.2 28.877777777777776)"/><use xlink:href="#d" transform="matrix(1,0,0,1,674.4220408126744,848.5048525493821) translate(11.2 28.877777777777776)"/><use xlink:href="#e" transform="matrix(1,0,0,1,674.4220408126744,848.5048525493821) translate(51.243209876543204 28.877777777777776)"/><use xlink:href="#f" transform="matrix(1,0,0,1,405,896.5048525493821) translate(11.2 28.877777777777776)"/><use xlink:href="#g" transform="matrix(1,0,0,1,579.0000000000143,896.5048525493821) translate(11.2 28.877777777777776)"/><use xlink:href="#h" transform="matrix(1,0,0,1,674.4220408126744,896.5048525493821) translate(11.2 28.877777777777776)"/><use xlink:href="#i" transform="matrix(1,0,0,1,405,944.5048525493821) translate(11.2 28.877777777777776)"/><use xlink:href="#j" transform="matrix(1,0,0,1,579.0000000000143,944.5048525493821) translate(11.2 28.877777777777776)"/><use xlink:href="#k" transform="matrix(1,0,0,1,405,992.5048525493821) translate(11.2 28.877777777777776)"/><use xlink:href="#k" transform="matrix(1,0,0,1,579.0000000000143,992.5048525493821) translate(11.2 28.877777777777776)"/><use xlink:href="#h" transform="matrix(1,0,0,1,674.4220408126744,992.5048525493821) translate(11.2 28.877777777777776)"/><path d="M60 120h560v192H60z" fill="#fff"/><path d="M60 216h560v48H60z" fill="#e6e6e6"/><path d="M60 120h560v48H60z" fill="#ccc"/><path d="M60 120h560v192H60zM60 168h560M356.67 168v144M507.23 168v144" stroke="#333" fill="none"/><use xlink:href="#l" transform="matrix(1,0,0,1,70,120) translate(182.8117283950617 31.377777777777776)"/><use xlink:href="#m" transform="matrix(1,0,0,1,65,170.5) translate(11.2 28.877777777777776)"/><use xlink:href="#c" transform="matrix(1,0,0,1,361.66666666667544,170.5) translate(11.2 28.877777777777776)"/><use xlink:href="#d" transform="matrix(1,0,0,1,512.2311336791054,170.5) translate(11.2 28.877777777777776)"/><use xlink:href="#e" transform="matrix(1,0,0,1,512.2311336791054,170.5) translate(51.243209876543204 28.877777777777776)"/><use xlink:href="#n" transform="matrix(1,0,0,1,65,218.5) translate(11.2 28.877777777777776)"/><use xlink:href="#o" transform="matrix(1,0,0,1,361.66666666667544,218.5) translate(11.2 28.877777777777776)"/><use xlink:href="#h" transform="matrix(1,0,0,1,512.2311336791054,218.5) translate(11.2 28.877777777777776)"/><use xlink:href="#p" transform="matrix(1,0,0,1,65,266.5) translate(11.2 28.877777777777776)"/><use xlink:href="#q" transform="matrix(1,0,0,1,361.66666666667544,266.5) translate(11.2 28.877777777777776)"/><path d="M1660 851c0-6.08 4.92-11 11-11h418.94c6.08 0 11 4.92 11 11v195.32c0 6.08-4.92 11-11 11H1671c-6.08 0-11-4.92-11-11z" stroke="#333" fill="#fff"/><path d="M1672.76 860.5c0-4.43 3.58-8 8-8h399.74c4.42 0 8 3.57 8 8v176c0 4.4-3.58 8-8 8h-399.74c-4.42 0-8-3.6-8-8z" fill="#fff"/><path d="M1672.76 860.5c0-4.43 3.58-8 8-8h399.74c4.42 0 8 3.57 8 8v176c0 4.4-3.58 8-8 8h-399.74c-4.42 0-8-3.6-8-8zM1672.76 900.5h415.74M1824.62 900.5v144M1975.3 900.5v144" stroke="#333" fill="none"/><use xlink:href="#r" transform="matrix(1,0,0,1,1682.7559055118109,852.492125984252) translate(158.75925925925924 31.377777777777776)"/><use xlink:href="#s" transform="matrix(1,0,0,1,1677.7559055118109,902.992125984252) translate(27.78703703703704 28.877777777777776)"/><use xlink:href="#t" transform="matrix(1,0,0,1,1829.620997375332,902.992125984252) translate(59.30555555555556 28.877777777777776)"/><use xlink:href="#d" transform="matrix(1,0,0,1,1980.287664041999,902.992125984252) translate(12.719135802469136 28.877777777777776)"/><use xlink:href="#e" transform="matrix(1,0,0,1,1980.287664041999,902.992125984252) translate(52.76234567901234 28.877777777777776)"/><use xlink:href="#f" transform="matrix(1,0,0,1,1677.7559055118109,950.992125984252) translate(34.92901234567901 28.877777777777776)"/><use xlink:href="#u" transform="matrix(1,0,0,1,1829.620997375332,950.992125984252) translate(2.4104938271605043 28.877777777777776)"/><use xlink:href="#d" transform="matrix(1,0,0,1,1980.287664041999,950.992125984252) translate(14.324074074074073 28.877777777777776)"/><use xlink:href="#v" transform="matrix(1,0,0,1,1980.287664041999,950.992125984252) translate(54.36728395061728 28.877777777777776)"/><use xlink:href="#i" transform="matrix(1,0,0,1,1677.7559055118109,998.992125984252) translate(1.3055555555555678 28.877777777777776)"/><use xlink:href="#j" transform="matrix(1,0,0,1,1829.620997375332,998.992125984252) translate(47.228395061728406 28.877777777777776)"/><path d="M1154.04 360h425.04v144h-425.04z" fill="#fff"/><path d="M1154.04 456h425.04v48h-425.04z" fill="#e6e6e6"/><path d="M1154.04 360h425.04v48h-425.04z" fill="#ccc"/><path d="M1154.04 360h425.04v144h-425.04zM1154.04 408h425.04M1287.53 408v96M1467.18 408v96" stroke="#333" fill="none"/><use xlink:href="#w" transform="matrix(1,0,0,1,1164.043916134588,360) translate(162.91666666666666 31.377777777777776)"/><use xlink:href="#x" transform="matrix(1,0,0,1,1159.043916134588,410.5) translate(11.2 28.877777777777776)"/><use xlink:href="#t" transform="matrix(1,0,0,1,1292.5348814769595,410.5) translate(11.2 28.877777777777776)"/><use xlink:href="#d" transform="matrix(1,0,0,1,1472.17534784178,410.5) translate(11.2 28.877777777777776)"/><use xlink:href="#e" transform="matrix(1,0,0,1,1472.17534784178,410.5) translate(51.243209876543204 28.877777777777776)"/><use xlink:href="#f" transform="matrix(1,0,0,1,1159.043916134588,458.5) translate(11.2 28.877777777777776)"/><use xlink:href="#y" transform="matrix(1,0,0,1,1292.5348814769595,458.5) translate(11.2 28.877777777777776)"/><use xlink:href="#h" transform="matrix(1,0,0,1,1472.17534784178,458.5) translate(11.2 28.877777777777776)"/><path d="M-40 1156h440v240H-40z" fill="#fff"/><path d="M-40 1252h440v48H-40zM-40 1348h440v48H-40z" fill="#e6e6e6"/><path d="M-40 1156h440v48H-40z" fill="#ccc"/><path d="M-40 1156h440v240H-40zM-40 1204h440M128.67 1204v192M275.73 1204v192" stroke="#333" fill="none"/><use xlink:href="#z" transform="matrix(1,0,0,1,-30,1156) translate(164.25925925925927 31.377777777777776)"/><use xlink:href="#A" transform="matrix(1,0,0,1,-35,1206.5) translate(11.2 28.877777777777776)"/><use xlink:href="#t" transform="matrix(1,0,0,1,133.66666666667103,1206.5) translate(11.2 28.877777777777776)"/><use xlink:href="#d" transform="matrix(1,0,0,1,280.7343704968903,1206.5) translate(11.2 28.877777777777776)"/><use xlink:href="#e" transform="matrix(1,0,0,1,280.7343704968903,1206.5) translate(51.243209876543204 28.877777777777776)"/><use xlink:href="#f" transform="matrix(1,0,0,1,-35,1254.5) translate(11.2 28.877777777777776)"/><use xlink:href="#g" transform="matrix(1,0,0,1,133.66666666667103,1254.5) translate(11.2 28.877777777777776)"/><use xlink:href="#h" transform="matrix(1,0,0,1,280.7343704968903,1254.5) translate(11.2 28.877777777777776)"/><use xlink:href="#i" transform="matrix(1,0,0,1,-35,1302.5) translate(11.2 28.877777777777776)"/><use xlink:href="#j" transform="matrix(1,0,0,1,133.66666666667103,1302.5) translate(11.2 28.877777777777776)"/><use xlink:href="#B" transform="matrix(1,0,0,1,-35,1350.5) translate(11.2 28.877777777777776)"/><use xlink:href="#B" transform="matrix(1,0,0,1,133.66666666667103,1350.5) translate(11.2 28.877777777777776)"/><use xlink:href="#h" transform="matrix(1,0,0,1,280.7343704968903,1350.5) translate(11.2 28.877777777777776)"/><path d="M115.17 480h469.66v240H115.17z" fill="#fff"/><path d="M115.17 576h469.66v48H115.17zM115.17 672h469.66v48H115.17z" fill="#e6e6e6"/><path d="M115.17 480h469.66v48H115.17z" fill="#ccc"/><path d="M115.17 480h469.66v240H115.17zM115.17 528h469.66M320.38 528v192M464.18 528v192" stroke="#333" fill="none"/><use xlink:href="#C" transform="matrix(1,0,0,1,125.1715887082226,480) translate(185.19753086419755 31.377777777777776)"/><use xlink:href="#D" transform="matrix(1,0,0,1,120.1715887082226,530.5) translate(11.2 28.877777777777776)"/><use xlink:href="#E" transform="matrix(1,0,0,1,325.38146199962324,530.5) translate(11.2 28.877777777777776)"/><use xlink:href="#F" transform="matrix(1,0,0,1,469.18147025061063,530.5) translate(11.2 28.877777777777776)"/><use xlink:href="#G" transform="matrix(1,0,0,1,469.18147025061063,530.5) translate(51.243209876543204 28.877777777777776)"/><use xlink:href="#H" transform="matrix(1,0,0,1,120.1715887082226,578.5) translate(11.2 28.877777777777776)"/><use xlink:href="#H" transform="matrix(1,0,0,1,325.38146199962324,578.5) translate(11.2 28.877777777777776)"/><use xlink:href="#I" transform="matrix(1,0,0,1,469.18147025061063,578.5) translate(11.2 28.877777777777776)"/><use xlink:href="#J" transform="matrix(1,0,0,1,120.1715887082226,626.5) translate(11.2 28.877777777777776)"/><use xlink:href="#K" transform="matrix(1,0,0,1,325.38146199962324,626.5) translate(11.2 28.877777777777776)"/><use xlink:href="#L" transform="matrix(1,0,0,1,120.1715887082226,674.5) translate(11.2 28.877777777777776)"/><use xlink:href="#M" transform="matrix(1,0,0,1,325.38146199962324,674.5) translate(11.2 28.877777777777776)"/><path d="M560 1108h540v288H560z" fill="#fff"/><path d="M560 1204h540v48H560zM560 1300h540v48H560z" fill="#e6e6e6"/><path d="M560 1108h540v48H560z" fill="#ccc"/><path d="M560 1108h540v288H560zM560 1156h540M815.1 1156v240M961.68 1156v240" stroke="#333" fill="none"/><use xlink:href="#N" transform="matrix(1,0,0,1,570,1108) translate(219.9969135802469 31.377777777777776)"/><use xlink:href="#O" transform="matrix(1,0,0,1,565,1158.5) translate(11.2 28.877777777777776)"/><use xlink:href="#c" transform="matrix(1,0,0,1,820.094433305273,1158.5) translate(11.2 28.877777777777776)"/><use xlink:href="#d" transform="matrix(1,0,0,1,966.678024606339,1158.5) translate(11.2 28.877777777777776)"/><use xlink:href="#e" transform="matrix(1,0,0,1,966.678024606339,1158.5) translate(51.243209876543204 28.877777777777776)"/><use xlink:href="#g" transform="matrix(1,0,0,1,565,1206.5) translate(11.2 28.877777777777776)"/><use xlink:href="#g" transform="matrix(1,0,0,1,820.094433305273,1206.5) translate(11.2 28.877777777777776)"/><use xlink:href="#h" transform="matrix(1,0,0,1,966.678024606339,1206.5) translate(11.2 28.877777777777776)"/><use xlink:href="#j" transform="matrix(1,0,0,1,565,1254.5) translate(11.2 28.877777777777776)"/><use xlink:href="#j" transform="matrix(1,0,0,1,820.094433305273,1254.5) translate(11.2 28.877777777777776)"/><use xlink:href="#h" transform="matrix(1,0,0,1,966.678024606339,1254.5) translate(11.2 28.877777777777776)"/><use xlink:href="#P" transform="matrix(1,0,0,1,565,1302.5) translate(11.2 28.877777777777776)"/><use xlink:href="#o" transform="matrix(1,0,0,1,820.094433305273,1302.5) translate(11.2 28.877777777777776)"/><use xlink:href="#h" transform="matrix(1,0,0,1,966.678024606339,1302.5) translate(11.2 28.877777777777776)"/><use xlink:href="#Q" transform="matrix(1,0,0,1,565,1350.5) translate(11.2 28.877777777777776)"/><use xlink:href="#o" transform="matrix(1,0,0,1,820.094433305273,1350.5) translate(11.2 28.877777777777776)"/><path d="M1180 920h353.13v144H1180z" fill="#fff"/><path d="M1180 1016h353.13v48H1180z" fill="#e6e6e6"/><path d="M1180 920h353.13v48H1180z" fill="#ccc"/><path d="M1180 920h353.13v144H1180zM1180 968h353.13M1334.62 968v96M1410.6 968v96" stroke="#333" fill="none"/><use xlink:href="#R" transform="matrix(1,0,0,1,1190,920) translate(110.10493827160495 31.377777777777776)"/><use xlink:href="#S" transform="matrix(1,0,0,1,1185,970.5) translate(11.2 28.877777777777776)"/><use xlink:href="#t" transform="matrix(1,0,0,1,1339.6183466933148,970.5) translate(11.2 28.877777777777776)"/><use xlink:href="#d" transform="matrix(1,0,0,1,1415.5934632324606,970.5) translate(11.2 28.877777777777776)"/><use xlink:href="#e" transform="matrix(1,0,0,1,1415.5934632324606,970.5) translate(51.243209876543204 28.877777777777776)"/><use xlink:href="#f" transform="matrix(1,0,0,1,1185,1018.5) translate(11.2 28.877777777777776)"/><use xlink:href="#g" transform="matrix(1,0,0,1,1339.6183466933148,1018.5) translate(11.2 28.877777777777776)"/><use xlink:href="#h" transform="matrix(1,0,0,1,1415.5934632324606,1018.5) translate(11.2 28.877777777777776)"/><path d="M1553.63 969h91.16M1553.63 975h91.16" stroke="#5e5e5e" stroke-width="3" fill="none"/><path d="M1553.63 982v-20M1533.63 972h20M1658.83 982l-20-10 20-10M1658.83 972h-20" stroke="#5e5e5e" stroke-width="3" fill="#fff"/><path d="M1469.33 1123.8l.67 2.45 1.58 1.6 2.45.65h68.07v3h-68.47l-3.6-.98-2.72-2.7-.97-3.62v-41.46h3zm648.48-692.32l2.72 2.7.98 3.62v686.4l-.98 3.6-2.7 2.72-3.62.98h-466.84v-3h466.44l2.45-.66 1.6-1.6.65-2.44V438.2l-.66-2.45-1.6-1.6-2.44-.65h-514.22v-3h514.62z" fill="#5e5e5e"/><path d="M1477.83 1065.17l-10 20-10-20z" fill="#fff"/><path d="M1479.18 1065.84l-11.35 22.68-11.34-22.68 2.68-1.34 8.65 17.32 8.66-17.32z" fill="#5e5e5e"/><path fill="#fff"/><path d="M1469.33 1085.17h-3v-20h3z" fill="#5e5e5e"/><path fill="#fff"/><path d="M1601.08 442h-3v-20h3z" fill="#5e5e5e"/><path fill="#fff"/><path d="M1599.58 433.5h-20v-3h20z" fill="#5e5e5e"/><use xlink:href="#T" transform="matrix(1,0,0,1,1542.1029854933868,1111.3333333333333) translate(0 24.888888888888882)"/><path d="M1118.74 1228h123.1c3.32 0 6-2.7 6-6v-156" stroke="#5e5e5e" stroke-width="3" fill="none"/><path d="M1101.17 1218l20 10-20 10M1101.17 1228h20" stroke="#5e5e5e" stroke-width="3" fill="#fff"/><path d="M1249.34 1066.04h-3v-1.54h3z" fill="#5e5e5e"/><path d="M859.2 696H605.32" stroke="#c92d39" stroke-width="3" fill="none"/><path d="M860.2 697.5h-1.05v-3h2.03z" fill="#c92d39"/><path d="M605.33 706v-20M585.33 696h20" stroke="#c92d39" stroke-width="3" fill="#fff"/><path d="M402 1228h139.26" stroke="#5e5e5e" stroke-width="3" fill="none"/><path d="M402.04 1229.5h-1.54v-3h1.54z" fill="#5e5e5e"/><path d="M558.83 1238l-20-10 20-10M558.83 1228h-20" stroke="#5e5e5e" stroke-width="3" fill="#fff"/><path d="M798.74 918h163.3c3.3 0 6 2.7 6 6v165.26" stroke="#5e5e5e" stroke-width="3" fill="none"/><path d="M781.17 908l20 10-20 10M781.17 918h20M958.03 1106.83l10-20 10 20M968.03 1106.83v-20" stroke="#5e5e5e" stroke-width="3" fill="#fff"/><path d="M287.04 330.74V459.5" stroke="#5e5e5e" stroke-width="3" fill="none"/><path d="M297.04 313.17l-10 20-10-20M287.04 313.17v20M297.04 459.5h-20M287.04 479.5v-20" stroke="#5e5e5e" stroke-width="3" fill="#fff"/><path d="M1194.02 238.54l3.6.98 2.73 2.72.97 3.6v95.42h-3v-95.02l-.66-2.45-1.58-1.6-2.45-.66h-225.9v-3zm-438.36-.03v3H638.74v-3z" fill="#5e5e5e"/><path d="M1189.82 358.83l10-20 10 20z" fill="#fff"/><path d="M1211.17 358.16l-2.7 1.34-8.65-17.32-8.65 17.32-2.7-1.34 11.35-22.68z" fill="#5e5e5e"/><path fill="#fff"/><path d="M1201.32 358.83h-3v-20h3z" fill="#5e5e5e"/><path d="M621.17 230l20 10-20 10z" fill="#fff"/><path d="M644.52 240l-22.68 11.34-1.34-2.68 17.32-8.66-17.32-8.66 1.34-2.68z" fill="#5e5e5e"/><path fill="#fff"/><path d="M641.17 238.5v3h-20v-3z" fill="#5e5e5e"/><use xlink:href="#U" transform="matrix(1,0,0,1,755.6589972318445,221.35117648536723) translate(0 24.88888888888888)"/><use xlink:href="#V" transform="matrix(1,0,0,1,755.6589972318445,221.35117648536723) translate(174.22222222222217 24.88888888888888)"/><path d="M199.76 1154V738.74" stroke="#5e5e5e" stroke-width="3" fill="none"/><path d="M201.26 1155.5h-3v-1.54h3z" fill="#5e5e5e"/><path d="M209.76 721.17l-10 20-10-20M199.76 721.17v20" stroke="#5e5e5e" stroke-width="3" fill="#fff"/><path d="M381.26 918H270c-3.32 0-6-2.68-6-6V738.74" stroke="#5e5e5e" stroke-width="3" fill="none"/><path d="M398.83 928l-20-10 20-10M398.83 918h-20M274 721.17l-10 20-10-20M264 721.17v20" stroke="#5e5e5e" stroke-width="3" fill="#fff"/><path d="M1468.76 644.8V524.5M1474.76 644.8V524.5" stroke="#5e5e5e" stroke-width="3" fill="none"/><path d="M1461.76 658.83l10-20 10 20M1471.76 658.83v-20M1461.76 524.5h20M1471.76 504.5v20" stroke="#5e5e5e" stroke-width="3" fill="#fff"/><path d="M1450.36 793.63V899.5M1444.36 793.63V899.5" stroke="#5e5e5e" stroke-width="3" fill="none"/><path d="M1457.36 779.6l-10 20-10-20M1447.36 779.6v20M1457.36 899.5h-20M1447.36 919.5v-20" stroke="#5e5e5e" stroke-width="3" fill="#fff"/><path d="M1660 565c0-24.85 20.15-45 45-45h297.87c24.86 0 45 20.15 45 45s-20.14 45-45 45H1705c-24.85 0-45-20.15-45-45z" fill="#fff"/><path d="M1660 565c0-24.85 20.15-45 45-45h297.87c24.86 0 45 20.15 45 45s-20.14 45-45 45H1705c-24.85 0-45-20.15-45-45zM1660 565h387.87M1833.83 565v45M1973.87 565v45" stroke="#333" fill="none"/><use xlink:href="#W" transform="matrix(1,0,0,1,1670,520) translate(118.1851851851852 29.433333333333334)"/><use xlink:href="#X" transform="matrix(1,0,0,1,1665,567.5) translate(18.333333333333353 26.933333333333334)"/><use xlink:href="#Y" transform="matrix(1,0,0,1,1838.825902573851,567.5) translate(14.462962962962973 26.933333333333334)"/><use xlink:href="#Z" transform="matrix(1,0,0,1,1978.874015748065,567.5) translate(20.925925925925927 26.933333333333334)"/><path d="M1853.94 612v209.26" stroke="#5e5e5e" stroke-width="3" fill="none"/><path d="M1855.44 612.04h-3v-1.54h3z" fill="#5e5e5e"/><path d="M1843.94 838.83l10-20 10 20M1853.94 838.83v-20" stroke="#5e5e5e" stroke-width="3" fill="#fff"/><path d="M-400 140h360v144h-360z" fill="#fff" fill-opacity=".75"/><path d="M-400 236h360v48h-360z" fill="#e6e6e6" fill-opacity=".75"/><path d="M-400 140h360v48h-360z" fill="#ccc" fill-opacity=".75"/><path d="M-400 140h360v144h-360zM-400 188h360M-229.28 188v96M-150.67 188v96" stroke="#333" fill="none"/><use xlink:href="#aa" transform="matrix(1,0,0,1,-390,140) translate(22.666666666666668 31.377777777777776)"/><use xlink:href="#ab" transform="matrix(1,0,0,1,-395,190.5) translate(11.2 28.877777777777776)"/><use xlink:href="#t" transform="matrix(1,0,0,1,-224.27651106149804,190.5) translate(11.2 28.877777777777776)"/><use xlink:href="#d" transform="matrix(1,0,0,1,-145.66663326889625,190.5) translate(11.2 28.877777777777776)"/><use xlink:href="#e" transform="matrix(1,0,0,1,-145.66663326889625,190.5) translate(51.243209876543204 28.877777777777776)"/><use xlink:href="#f" transform="matrix(1,0,0,1,-395,238.5) translate(11.2 28.877777777777776)"/><use xlink:href="#g" transform="matrix(1,0,0,1,-224.27651106149804,238.5) translate(11.2 28.877777777777776)"/><use xlink:href="#h" transform="matrix(1,0,0,1,-145.66663326889625,238.5) translate(11.2 28.877777777777776)"/><path d="M-19.5 192h60.76" stroke="#5e5e5e" stroke-width="3" fill="none"/><path d="M-19.5 202v-20M-39.5 192h20M58.83 202l-20-10 20-10M58.83 192h-20" stroke="#5e5e5e" stroke-width="3" fill="#fff"/><path d="M-380 720H60v144h-440z" fill="#fff" fill-opacity=".75"/><path d="M-380 816H60v48h-440z" fill="#e6e6e6" fill-opacity=".75"/><path d="M-380 720H60v48h-440z" fill="#ccc" fill-opacity=".75"/><path d="M-380 720H60v144h-440zM-380 768H60M-133.9 768v96M-52.8 768v96" stroke="#333" fill="none"/><use xlink:href="#ac" transform="matrix(1,0,0,1,-370,720) translate(78.83641975308639 31.377777777777776)"/><use xlink:href="#ad" transform="matrix(1,0,0,1,-375,770.5) translate(11.2 28.877777777777776)"/><use xlink:href="#t" transform="matrix(1,0,0,1,-128.89693265931646,770.5) translate(11.2 28.877777777777776)"/><use xlink:href="#d" transform="matrix(1,0,0,1,-47.790608168653534,770.5) translate(11.2 28.877777777777776)"/><use xlink:href="#e" transform="matrix(1,0,0,1,-47.790608168653534,770.5) translate(51.243209876543204 28.877777777777776)"/><use xlink:href="#f" transform="matrix(1,0,0,1,-375,818.5) translate(11.2 28.877777777777776)"/><use xlink:href="#g" transform="matrix(1,0,0,1,-128.89693265931646,818.5) translate(11.2 28.877777777777776)"/><use xlink:href="#h" transform="matrix(1,0,0,1,-47.790608168653534,818.5) translate(11.2 28.877777777777776)"/><path d="M1271.8 671c0-6.08 4.94-11 11-11h418.96c6.07 0 11 4.92 11 11v96.43c0 6.07-4.93 11-11 11H1282.8c-6.06 0-11-4.93-11-11z" stroke="#333" fill="#fff"/><path d="M1284.57 680.5c0-4.43 3.58-8 8-8h399.74c4.43 0 8 3.57 8 8v77c0 4.4-3.57 8-8 8h-399.73c-4.42 0-8-3.6-8-8z" fill="#fff"/><path d="M1284.57 680.5c0-4.43 3.58-8 8-8h399.74c4.43 0 8 3.57 8 8v77c0 4.4-3.57 8-8 8h-399.73c-4.42 0-8-3.6-8-8zM1284.57 717.5h415.74M1436.43 717.5v48M1587.1 717.5v48" stroke="#333" fill="none"/><use xlink:href="#ae" transform="matrix(1,0,0,1,1294.566929133858,672.492125984252) translate(60.6666666666667 29.433333333333334)"/><use xlink:href="#af" transform="matrix(1,0,0,1,1289.566929133858,719.992125984252) translate(17.000000000000018 28.433333333333334)"/><use xlink:href="#o" transform="matrix(1,0,0,1,1441.4320209973791,719.992125984252) translate(15.209876543209884 28.877777777777776)"/><use xlink:href="#h" transform="matrix(1,0,0,1,1592.098687664046,719.992125984252) translate(40.00308641975309 28.877777777777776)"/><path d="M1663.68 586.9h-85.1c-3.3 0-6 2.7-6 6v48.36" stroke="#5e5e5e" stroke-width="3" fill="none"/><path d="M1666.03 588.4h-2.4v-3h.7z" fill="#5e5e5e"/><path d="M1562.58 658.83l10-20 10 20M1572.58 658.83v-20M1084 660c30.93 0 56 22.4 56 50s-25.07 50-56 50H916c-30.93 0-56-22.4-56-50s25.07-50 56-50z" stroke="#5e5e5e" stroke-width="3" fill="#fff"/><use xlink:href="#ag" transform="matrix(1,0,0,1,865,665) translate(46.32716049382715 51.236111111111114)"/><path d="M1068.3 763v175c0 3.3 2.68 6 6 6h85.2" stroke="#5e5e5e" stroke-width="3" fill="none"/><path d="M1069.8 763.04h-3v-1.54h3z" fill="#5e5e5e"/><path d="M1159.5 934v20M1179.5 944h-20" stroke="#5e5e5e" stroke-width="3" fill="#fff"/><path d="M1346.35 579.48l2.72 2.7.97 3.62V658h-3v-71.8l-.66-2.45-1.6-1.6-2.44-.65h-67.04v-3h67.44zm-203.96 2.02h-68.05l-2.45.66-1.6 1.6-.65 2.44V657h-3v-71.2l.97-3.6 2.72-2.72 3.6-.98h68.45z" fill="#5e5e5e"/><path d="M1069.65 658.5h-3v-1.54h3zM1350.04 659.5h-3v-1.54h3z" fill="#5e5e5e"/><use xlink:href="#ah" transform="matrix(1,0,0,1,1142.3878417470976,561.3333333333334) translate(0 24.888888888888886)"/><path d="M1760 136c0-3.3 2.7-6 6-6h228c3.3 0 6 2.7 6 6v48c0 3.3-2.7 6-6 6h-228c-3.3 0-6-2.7-6-6z" fill="none"/><use xlink:href="#ai" transform="matrix(1,0,0,1,1760,130) translate(49.09259259259261 36.22222222222222)"/><use xlink:href="#aj" transform="matrix(1,0,0,1,1760,130) translate(97.31481481481482 36.22222222222222)"/><path d="M1760 76c0-3.3 2.7-6 6-6h228c3.3 0 6 2.7 6 6v48c0 3.3-2.7 6-6 6h-228c-3.3 0-6-2.7-6-6z" fill="none"/><use xlink:href="#ak" transform="matrix(1,0,0,1,1760,70) translate(60.58641975308645 36.22222222222222)"/><use xlink:href="#al" transform="matrix(1,0,0,1,1760,70) translate(108.80864197530866 36.22222222222222)"/><path d="M2118.5 158.22H2020M2118.46 158.22h1.54" stroke="#c92d39" stroke-width="3" fill="none"/><path d="M2020 168.22v-20M2000 158.22h20" stroke="#c92d39" stroke-width="3" fill="#fff"/><path d="M2118.5 100.27H2020M2118.46 100.27h1.54" stroke="#333" stroke-width="3" fill="none"/><path d="M2020 110.27v-20M2000 100.27h20" stroke="#333" stroke-width="3" fill="#fff"/><path d="M1780 46c0-3.3 2.7-6 6-6h368c3.3 0 6 2.7 6 6v158c0 3.3-2.7 6-6 6h-368c-3.3 0-6-2.7-6-6z" stroke="#5e5e5e" stroke-width="3" fill-opacity="0"/><path d="M-380 598c0-24.85 20.15-45 45-45H15c24.85 0 45 20.15 45 45s-20.15 45-45 45h-350c-24.85 0-45-20.15-45-45z" fill="#fff"/><path d="M-380 598c0-24.85 20.15-45 45-45H15c24.85 0 45 20.15 45 45s-20.15 45-45 45h-350c-24.85 0-45-20.15-45-45zM-380 598H60M-145.27 598v45M-14 598v45" stroke="#333" fill="none"/><use xlink:href="#am" transform="matrix(1,0,0,1,-370,553) translate(12.81481481481482 29.433333333333334)"/><use xlink:href="#an" transform="matrix(1,0,0,1,-375,600.5) translate(11.2 26.933333333333334)"/><use xlink:href="#Y" transform="matrix(1,0,0,1,-140.27415138101128,600.5) translate(9.962962962962973 26.933333333333334)"/><use xlink:href="#Z" transform="matrix(1,0,0,1,-8.999999999966576,600.5) translate(20.925925925925927 26.933333333333334)"/><path d="M61.9 600h34.54" stroke="#5e5e5e" stroke-width="3" fill="none"/><path d="M61.93 601.5H60.3l.17-3h1.46z" fill="#5e5e5e"/><path d="M114 610l-20-10 20-10M114 600H94" stroke="#5e5e5e" stroke-width="3" fill="#fff"/><path d="M-160 699.5V645" stroke="#5e5e5e" stroke-width="3" fill="none"/><path d="M-150 699.5h-20M-160 719.5v-20" stroke="#5e5e5e" stroke-width="3" fill="#fff"/><path d="M-158.5 645.04h-3v-1.54h3z" fill="#5e5e5e"/><path d="M660 506.5c0-25.68 20.82-46.5 46.5-46.5h307c25.68 0 46.5 20.82 46.5 46.5s-20.82 46.5-46.5 46.5h-307c-25.68 0-46.5-20.82-46.5-46.5z" fill="#fff"/><path d="M660 506.5c0-25.68 20.82-46.5 46.5-46.5h307c25.68 0 46.5 20.82 46.5 46.5s-20.82 46.5-46.5 46.5h-307c-25.68 0-46.5-20.82-46.5-46.5zM660 505h400M868.7 505v48M986 505v48" stroke="#333" fill="none"/><use xlink:href="#ao" transform="matrix(1,0,0,1,670,460) translate(105.96296296296299 29.433333333333334)"/><use xlink:href="#ap" transform="matrix(1,0,0,1,665,507.5) translate(11.2 28.877777777777776)"/><use xlink:href="#Y" transform="matrix(1,0,0,1,873.7061337445384,507.5) translate(2.9629629629629726 28.433333333333334)"/><use xlink:href="#Z" transform="matrix(1,0,0,1,991.0000000000334,507.5) translate(20.925925925925927 28.433333333333334)"/><path d="M1055.78 483.2h77.76" stroke="#5e5e5e" stroke-width="3" fill="none"/><path d="M1055.82 484.7h-.7l-.24-.52-1.52-2.47h2.46z" fill="#5e5e5e"/><path d="M1133.54 473.2v20M1153.54 483.2h-20" stroke="#5e5e5e" stroke-width="3" fill="#fff"/><path d="M658.13 504h-54.57" stroke="#5e5e5e" stroke-width="3" fill="none"/><path d="M659.55 505.5h-1.46v-3h1.6z" fill="#5e5e5e"/><path d="M586 494l20 10-20 10M586 504h20" stroke="#5e5e5e" stroke-width="3" fill="#fff"/><path d="M1440 1326.5c0-25.68 20.82-46.5 46.5-46.5h307c25.68 0 46.5 20.82 46.5 46.5s-20.82 46.5-46.5 46.5h-307c-25.68 0-46.5-20.82-46.5-46.5z" fill="#fff"/><path d="M1440 1326.5c0-25.68 20.82-46.5 46.5-46.5h307c25.68 0 46.5 20.82 46.5 46.5s-20.82 46.5-46.5 46.5h-307c-25.68 0-46.5-20.82-46.5-46.5zM1440 1325h400M1648.7 1325v48M1766 1325v48" stroke="#333" fill="none"/><use xlink:href="#aq" transform="matrix(1,0,0,1,1450,1280) translate(105.7777777777778 29.433333333333334)"/><g><use xlink:href="#ap" transform="matrix(1,0,0,1,1445,1327.5) translate(11.2 28.877777777777776)"/></g><g><use xlink:href="#Y" transform="matrix(1,0,0,1,1653.7061337445384,1327.5) translate(2.9629629629629726 28.433333333333334)"/></g><g><use xlink:href="#Z" transform="matrix(1,0,0,1,1771.0000000000334,1327.5) translate(20.925925925925927 28.433333333333334)"/></g><path d="M1438.18 1323.2h-319.44" stroke="#5e5e5e" stroke-width="3" fill="none"/><path d="M1439.6 1324.7h-1.46v-3h1.62z" fill="#5e5e5e"/><path d="M1101.17 1313.2l20 10-20 10M1101.17 1323.2h20" stroke="#5e5e5e" stroke-width="3" fill="#fff"/><path d="M2167.8 383.36l2.72 2.72.98 3.6v931.53l-.98 3.62-2.7 2.7-3.62 1h-322.23v-3h321.83l2.45-.67 1.6-1.6.65-2.44V390.1l-.66-2.46-1.6-1.6-2.44-.65h-564.22v-3h564.62z" fill="#5e5e5e"/><path d="M1842 1328.5h-1.6l.1-2-.03-1h1.54z" fill="#5e5e5e"/><path fill="#fff"/><path d="M1601.08 393.9h-3v-20h3z" fill="#5e5e5e"/><path fill="#fff"/><path d="M1599.58 385.4h-20v-3h20z" fill="#5e5e5e"/><defs><path fill="#333" d="M136-208V0H84v-208H4v-40h212v40h-80" id="ar"/><path fill="#333" d="M133-34C117-15 103 5 69 4 32 3 11-16 11-54c-1-60 55-63 116-61 1-26-3-47-28-47-18 1-26 9-28 27l-52-2c7-38 36-58 82-57s74 22 75 68l1 82c-1 14 12 18 25 15v27c-30 8-71 5-69-32zm-48 3c29 0 43-24 42-57-32 0-66-3-65 30 0 17 8 27 23 27" id="as"/><path fill="#333" d="M195-6C206 82 75 100 31 46c-4-6-6-13-8-21l49-6c3 16 16 24 34 25 40 0 42-37 40-79-11 22-30 35-61 35-53 0-70-43-70-97 0-56 18-96 73-97 30 0 46 14 59 34l2-30h47zm-90-29c32 0 41-27 41-63 0-35-9-62-40-62-32 0-39 29-40 63 0 36 9 62 39 62" id="at"/><path fill="#333" d="M137-138c1-29-70-34-71-4 15 46 118 7 119 86 1 83-164 76-172 9l43-7c4 19 20 25 44 25 33 8 57-30 24-41C81-84 22-81 20-136c-2-80 154-74 161-7" id="au"/><g id="a"><use transform="matrix(0.0802469135802469,0,0,0.0802469135802469,0,0)" xlink:href="#ar"/><use transform="matrix(0.0802469135802469,0,0,0.0802469135802469,15.407407407407405,0)" xlink:href="#as"/><use transform="matrix(0.0802469135802469,0,0,0.0802469135802469,31.456790123456784,0)" xlink:href="#at"/><use transform="matrix(0.0802469135802469,0,0,0.0802469135802469,49.03086419753085,0)" xlink:href="#au"/></g><path fill="#333" d="M59-47c-2 24 18 29 38 22v24C64 9 27 4 27-40v-127H5v-23h24l9-43h21v43h35v23H59v120" id="av"/><path fill="#333" d="M141-36C126-15 110 5 73 4 37 3 15-17 15-53c-1-64 63-63 125-63 3-35-9-54-41-54-24 1-41 7-42 31l-33-3c5-37 33-52 76-52 45 0 72 20 72 64v82c-1 20 7 32 28 27v20c-31 9-61-2-59-35zM48-53c0 20 12 33 32 33 41-3 63-29 60-74-43 2-92-5-92 41" id="aw"/><path fill="#333" d="M177-190C167-65 218 103 67 71c-23-6-38-20-44-43l32-5c15 47 100 32 89-28v-30C133-14 115 1 83 1 29 1 15-40 15-95c0-56 16-97 71-98 29-1 48 16 59 35 1-10 0-23 2-32h30zM94-22c36 0 50-32 50-73 0-42-14-75-50-75-39 0-46 34-46 75s6 73 46 73" id="ax"/><path fill="#333" d="M-5 72V49h209v23H-5" id="ay"/><path fill="#333" d="M24-231v-30h32v30H24zM24 0v-190h32V0H24" id="az"/><path fill="#333" d="M85-194c31 0 48 13 60 33l-1-100h32l1 261h-30c-2-10 0-23-3-31C134-8 116 4 85 4 32 4 16-35 15-94c0-66 23-100 70-100zm9 24c-40 0-46 34-46 75 0 40 6 74 45 74 42 0 51-32 51-76 0-42-9-74-50-73" id="aA"/><g id="b"><use transform="matrix(0.08024691358024691,0,0,0.08024691358024691,0,0)" xlink:href="#av"/><use transform="matrix(0.08024691358024691,0,0,0.08024691358024691,8.024691358024691,0)" xlink:href="#aw"/><use transform="matrix(0.08024691358024691,0,0,0.08024691358024691,24.074074074074076,0)" xlink:href="#ax"/><use transform="matrix(0.08024691358024691,0,0,0.08024691358024691,40.123456790123456,0)" xlink:href="#ay"/><use transform="matrix(0.08024691358024691,0,0,0.08024691358024691,56.172839506172835,0)" xlink:href="#az"/><use transform="matrix(0.08024691358024691,0,0,0.08024691358024691,62.51234567901234,0)" xlink:href="#aA"/><path fill="#333" d="M-1.44 2H80v2.12H-1.43z"/></g><path fill="#333" d="M115-194c53 0 69 39 70 98 0 66-23 100-70 100C84 3 66-7 56-30L54 0H23l1-261h32v101c10-23 28-34 59-34zm-8 174c40 0 45-34 45-75 0-40-5-75-45-74-42 0-51 32-51 76 0 43 10 73 51 73" id="aB"/><g id="c"><use transform="matrix(0.08024691358024691,0,0,0.08024691358024691,0,0)" xlink:href="#aB"/><use transform="matrix(0.08024691358024691,0,0,0.08024691358024691,16.049382716049383,0)" xlink:href="#az"/><use transform="matrix(0.08024691358024691,0,0,0.08024691358024691,22.38888888888889,0)" xlink:href="#aA"/></g><path fill="#333" d="M240 0l2-218c-23 76-54 145-80 218h-23L58-218 59 0H30v-248h44l77 211c21-75 51-140 76-211h43V0h-30" id="aC"/><path fill="#333" d="M68-38c1 34 0 65-14 84H32c9-13 17-26 17-46H33v-38h35" id="aD"/><g id="d"><use transform="matrix(0.08024691358024691,0,0,0.08024691358024691,0,0)" xlink:href="#aC"/><use transform="matrix(0.08024691358024691,0,0,0.08024691358024691,23.993827160493826,0)" xlink:href="#aD"/></g><path fill="#333" d="M30-248c87 1 191-15 191 75 0 78-77 80-158 76V0H30v-248zm33 125c57 0 124 11 124-50 0-59-68-47-124-48v98" id="aE"/><path fill="#333" d="M194 0L95-120 63-95V0H30v-248h33v124l119-124h40L117-140 236 0h-42" id="aF"/><g id="e"><use transform="matrix(0.08024691358024691,0,0,0.08024691358024691,0,0)" xlink:href="#aE"/><use transform="matrix(0.08024691358024691,0,0,0.08024691358024691,19.25925925925926,0)" xlink:href="#aF"/></g><path fill="#333" d="M117-194c89-4 53 116 60 194h-32v-121c0-31-8-49-39-48C34-167 62-67 57 0H25l-1-190h30c1 10-1 24 2 32 11-22 29-35 61-36" id="aG"/><path fill="#333" d="M210-169c-67 3-38 105-44 169h-31v-121c0-29-5-50-35-48C34-165 62-65 56 0H25l-1-190h30c1 10-1 24 2 32 10-44 99-50 107 0 11-21 27-35 58-36 85-2 47 119 55 194h-31v-121c0-29-5-49-35-48" id="aH"/><path fill="#333" d="M100-194c63 0 86 42 84 106H49c0 40 14 67 53 68 26 1 43-12 49-29l28 8c-11 28-37 45-77 45C44 4 14-33 15-96c1-61 26-98 85-98zm52 81c6-60-76-77-97-28-3 7-6 17-6 28h103" id="aI"/><g id="f"><use transform="matrix(0.08024691358024691,0,0,0.08024691358024691,0,0)" xlink:href="#aG"/><use transform="matrix(0.08024691358024691,0,0,0.08024691358024691,16.049382716049383,0)" xlink:href="#aw"/><use transform="matrix(0.08024691358024691,0,0,0.08024691358024691,32.098765432098766,0)" xlink:href="#aH"/><use transform="matrix(0.08024691358024691,0,0,0.08024691358024691,56.092592592592595,0)" xlink:href="#aI"/></g><path fill="#333" d="M24 0v-261h32V0H24" id="aJ"/><g id="g"><use transform="matrix(0.08024691358024691,0,0,0.08024691358024691,0,0)" xlink:href="#av"/><use transform="matrix(0.08024691358024691,0,0,0.08024691358024691,8.024691358024691,0)" xlink:href="#az"/><use transform="matrix(0.08024691358024691,0,0,0.08024691358024691,14.364197530864196,0)" xlink:href="#av"/><use transform="matrix(0.08024691358024691,0,0,0.08024691358024691,22.38888888888889,0)" xlink:href="#aJ"/><use transform="matrix(0.08024691358024691,0,0,0.08024691358024691,28.728395061728392,0)" xlink:href="#aI"/></g><use transform="matrix(0.08024691358024691,0,0,0.08024691358024691,0,0)" xlink:href="#aC" id="h"/><path fill="#333" d="M135-143c-3-34-86-38-87 0 15 53 115 12 119 90S17 21 10-45l28-5c4 36 97 45 98 0-10-56-113-15-118-90-4-57 82-63 122-42 12 7 21 19 24 35" id="aK"/><path fill="#333" d="M96-169c-40 0-48 33-48 73s9 75 48 75c24 0 41-14 43-38l32 2c-6 37-31 61-74 61-59 0-76-41-82-99-10-93 101-131 147-64 4 7 5 14 7 22l-32 3c-4-21-16-35-41-35" id="aL"/><path fill="#333" d="M114-163C36-179 61-72 57 0H25l-1-190h30c1 12-1 29 2 39 6-27 23-49 58-41v29" id="aM"/><path fill="#333" d="M115-194c55 1 70 41 70 98S169 2 115 4C84 4 66-9 55-30l1 105H24l-1-265h31l2 30c10-21 28-34 59-34zm-8 174c40 0 45-34 45-75s-6-73-45-74c-42 0-51 32-51 76 0 43 10 73 51 73" id="aN"/><path fill="#333" d="M100-194c62-1 85 37 85 99 1 63-27 99-86 99S16-35 15-95c0-66 28-99 85-99zM99-20c44 1 53-31 53-75 0-43-8-75-51-75s-53 32-53 75 10 74 51 75" id="aO"/><g id="i"><use transform="matrix(0.08024691358024691,0,0,0.08024691358024691,0,0)" xlink:href="#aA"/><use transform="matrix(0.08024691358024691,0,0,0.08024691358024691,16.049382716049383,0)" xlink:href="#aI"/><use transform="matrix(0.08024691358024691,0,0,0.08024691358024691,32.098765432098766,0)" xlink:href="#aK"/><use transform="matrix(0.08024691358024691,0,0,0.08024691358024691,46.54320987654321,0)" xlink:href="#aL"/><use transform="matrix(0.08024691358024691,0,0,0.08024691358024691,60.98765432098765,0)" xlink:href="#aM"/><use transform="matrix(0.08024691358024691,0,0,0.08024691358024691,70.53703703703704,0)" xlink:href="#az"/><use transform="matrix(0.08024691358024691,0,0,0.08024691358024691,76.87654320987654,0)" xlink:href="#aN"/><use transform="matrix(0.08024691358024691,0,0,0.08024691358024691,92.92592592592592,0)" xlink:href="#av"/><use transform="matrix(0.08024691358024691,0,0,0.08024691358024691,100.9506172839506,0)" xlink:href="#az"/><use transform="matrix(0.08024691358024691,0,0,0.08024691358024691,107.29012345679014,0)" xlink:href="#aO"/><use transform="matrix(0.08024691358024691,0,0,0.08024691358024691,123.3395061728395,0)" xlink:href="#aG"/></g><path fill="#333" d="M141 0L90-78 38 0H4l68-98-65-92h35l48 74 47-74h35l-64 92 68 98h-35" id="aP"/><g id="j"><use transform="matrix(0.08024691358024691,0,0,0.08024691358024691,0,0)" xlink:href="#av"/><use transform="matrix(0.08024691358024691,0,0,0.08024691358024691,8.024691358024691,0)" xlink:href="#aI"/><use transform="matrix(0.08024691358024691,0,0,0.08024691358024691,24.074074074074076,0)" xlink:href="#aP"/><use transform="matrix(0.08024691358024691,0,0,0.08024691358024691,38.51851851851852,0)" xlink:href="#av"/></g><g id="k"><use transform="matrix(0.08024691358024691,0,0,0.08024691358024691,0,0)" xlink:href="#aL"/><use transform="matrix(0.08024691358024691,0,0,0.08024691358024691,14.444444444444443,0)" xlink:href="#aO"/><use transform="matrix(0.08024691358024691,0,0,0.08024691358024691,30.493827160493826,0)" xlink:href="#aJ"/><use transform="matrix(0.08024691358024691,0,0,0.08024691358024691,36.83333333333333,0)" xlink:href="#aO"/><use transform="matrix(0.08024691358024691,0,0,0.08024691358024691,52.8827160493827,0)" xlink:href="#aM"/></g><path fill="#333" d="M175 0L67-191c6 58 2 128 3 191H24v-248h59L193-55c-6-58-2-129-3-193h46V0h-61" id="aQ"/><path fill="#333" d="M110-194c64 0 96 36 96 99 0 64-35 99-97 99-61 0-95-36-95-99 0-62 34-99 96-99zm-1 164c35 0 45-28 45-65 0-40-10-65-43-65-34 0-45 26-45 65 0 36 10 65 43 65" id="aR"/><path fill="#333" d="M115-3C79 11 28 4 28-45v-112H4v-33h27l15-45h31v45h36v33H77v99c-1 23 16 31 38 25v30" id="aS"/><path fill="#333" d="M25-224v-37h50v37H25zM25 0v-190h50V0H25" id="aT"/><path fill="#333" d="M121-226c-27-7-43 5-38 36h38v33H83V0H34v-157H6v-33h28c-9-59 32-81 87-68v32" id="aU"/><path fill="#333" d="M190-63c-7 42-38 67-86 67-59 0-84-38-90-98-12-110 154-137 174-36l-49 2c-2-19-15-32-35-32-30 0-35 28-38 64-6 74 65 87 74 30" id="aV"/><path fill="#333" d="M135-194c87-1 58 113 63 194h-50c-7-57 23-157-34-157-59 0-34 97-39 157H25l-1-190h47c2 12-1 28 3 38 12-26 28-41 61-42" id="aW"/><g id="l"><use transform="matrix(0.08024691358024691,0,0,0.08024691358024691,0,0)" xlink:href="#aQ"/><use transform="matrix(0.08024691358024691,0,0,0.08024691358024691,20.78395061728395,0)" xlink:href="#aR"/><use transform="matrix(0.08024691358024691,0,0,0.08024691358024691,38.358024691358025,0)" xlink:href="#aS"/><use transform="matrix(0.08024691358024691,0,0,0.08024691358024691,47.907407407407405,0)" xlink:href="#aT"/><use transform="matrix(0.08024691358024691,0,0,0.08024691358024691,55.932098765432094,0)" xlink:href="#aU"/><use transform="matrix(0.08024691358024691,0,0,0.08024691358024691,65.48148148148148,0)" xlink:href="#aT"/><use transform="matrix(0.08024691358024691,0,0,0.08024691358024691,73.50617283950618,0)" xlink:href="#aV"/><use transform="matrix(0.08024691358024691,0,0,0.08024691358024691,89.55555555555556,0)" xlink:href="#as"/><use transform="matrix(0.08024691358024691,0,0,0.08024691358024691,105.60493827160494,0)" xlink:href="#aS"/><use transform="matrix(0.08024691358024691,0,0,0.08024691358024691,115.15432098765432,0)" xlink:href="#aT"/><use transform="matrix(0.08024691358024691,0,0,0.08024691358024691,123.179012345679,0)" xlink:href="#aR"/><use transform="matrix(0.08024691358024691,0,0,0.08024691358024691,140.7530864197531,0)" xlink:href="#aW"/><use transform="matrix(0.08024691358024691,0,0,0.08024691358024691,158.32716049382717,0)" xlink:href="#au"/></g><path fill="#333" d="M101-234c-31-9-42 10-38 44h38v23H63V0H32v-167H5v-23h27c-7-52 17-82 69-68v24" id="aX"/><g id="m"><use transform="matrix(0.08024691358024691,0,0,0.08024691358024691,0,0)" xlink:href="#aG"/><use transform="matrix(0.08024691358024691,0,0,0.08024691358024691,16.049382716049383,0)" xlink:href="#aO"/><use transform="matrix(0.08024691358024691,0,0,0.08024691358024691,32.098765432098766,0)" xlink:href="#av"/><use transform="matrix(0.08024691358024691,0,0,0.08024691358024691,40.123456790123456,0)" xlink:href="#az"/><use transform="matrix(0.08024691358024691,0,0,0.08024691358024691,46.46296296296296,0)" xlink:href="#aX"/><use transform="matrix(0.08024691358024691,0,0,0.08024691358024691,54.48765432098765,0)" xlink:href="#az"/><use transform="matrix(0.08024691358024691,0,0,0.08024691358024691,60.82716049382716,0)" xlink:href="#aL"/><use transform="matrix(0.08024691358024691,0,0,0.08024691358024691,75.2716049382716,0)" xlink:href="#aw"/><use transform="matrix(0.08024691358024691,0,0,0.08024691358024691,91.32098765432096,0)" xlink:href="#av"/><use transform="matrix(0.08024691358024691,0,0,0.08024691358024691,99.34567901234567,0)" xlink:href="#az"/><use transform="matrix(0.08024691358024691,0,0,0.08024691358024691,105.68518518518518,0)" xlink:href="#aO"/><use transform="matrix(0.08024691358024691,0,0,0.08024691358024691,121.73456790123456,0)" xlink:href="#aG"/><use transform="matrix(0.08024691358024691,0,0,0.08024691358024691,137.78395061728395,0)" xlink:href="#ay"/><use transform="matrix(0.08024691358024691,0,0,0.08024691358024691,153.83333333333334,0)" xlink:href="#az"/><use transform="matrix(0.08024691358024691,0,0,0.08024691358024691,160.17283950617283,0)" xlink:href="#aA"/><path fill="#333" d="M-1.44 2h179.1v2.12H-1.43z"/></g><g id="n"><use transform="matrix(0.08024691358024691,0,0,0.08024691358024691,0,0)" xlink:href="#aX"/><use transform="matrix(0.08024691358024691,0,0,0.08024691358024691,8.024691358024691,0)" xlink:href="#az"/><use transform="matrix(0.08024691358024691,0,0,0.08024691358024691,14.364197530864196,0)" xlink:href="#aM"/><use transform="matrix(0.08024691358024691,0,0,0.08024691358024691,23.91358024691358,0)" xlink:href="#aK"/><use transform="matrix(0.08024691358024691,0,0,0.08024691358024691,38.358024691358025,0)" xlink:href="#av"/><use transform="matrix(0.08024691358024691,0,0,0.08024691358024691,46.382716049382715,0)" xlink:href="#ay"/><use transform="matrix(0.08024691358024691,0,0,0.08024691358024691,62.4320987654321,0)" xlink:href="#aG"/><use transform="matrix(0.08024691358024691,0,0,0.08024691358024691,78.48148148148148,0)" xlink:href="#aO"/><use transform="matrix(0.08024691358024691,0,0,0.08024691358024691,94.53086419753086,0)" xlink:href="#av"/><use transform="matrix(0.08024691358024691,0,0,0.08024691358024691,102.55555555555554,0)" xlink:href="#az"/><use transform="matrix(0.08024691358024691,0,0,0.08024691358024691,108.89506172839505,0)" xlink:href="#aX"/><use transform="matrix(0.08024691358024691,0,0,0.08024691358024691,116.91975308641976,0)" xlink:href="#az"/><use transform="matrix(0.08024691358024691,0,0,0.08024691358024691,123.25925925925927,0)" xlink:href="#aL"/><use transform="matrix(0.08024691358024691,0,0,0.08024691358024691,137.7037037037037,0)" xlink:href="#aw"/><use transform="matrix(0.08024691358024691,0,0,0.08024691358024691,153.7530864197531,0)" xlink:href="#av"/><use transform="matrix(0.08024691358024691,0,0,0.08024691358024691,161.77777777777777,0)" xlink:href="#az"/><use transform="matrix(0.08024691358024691,0,0,0.08024691358024691,168.11728395061726,0)" xlink:href="#aO"/><use transform="matrix(0.08024691358024691,0,0,0.08024691358024691,184.16666666666666,0)" xlink:href="#aG"/><use transform="matrix(0.08024691358024691,0,0,0.08024691358024691,200.21604938271605,0)" xlink:href="#ay"/><use transform="matrix(0.08024691358024691,0,0,0.08024691358024691,216.26543209876544,0)" xlink:href="#aA"/><use transform="matrix(0.08024691358024691,0,0,0.08024691358024691,232.31481481481484,0)" xlink:href="#aw"/><use transform="matrix(0.08024691358024691,0,0,0.08024691358024691,248.36419753086423,0)" xlink:href="#av"/><use transform="matrix(0.08024691358024691,0,0,0.08024691358024691,256.3888888888889,0)" xlink:href="#aI"/></g><g id="o"><use transform="matrix(0.08024691358024691,0,0,0.08024691358024691,0,0)" xlink:href="#aA"/><use transform="matrix(0.08024691358024691,0,0,0.08024691358024691,16.049382716049383,0)" xlink:href="#aw"/><use transform="matrix(0.08024691358024691,0,0,0.08024691358024691,32.098765432098766,0)" xlink:href="#av"/><use transform="matrix(0.08024691358024691,0,0,0.08024691358024691,40.123456790123456,0)" xlink:href="#aI"/><use transform="matrix(0.08024691358024691,0,0,0.08024691358024691,56.172839506172835,0)" xlink:href="#av"/><use transform="matrix(0.08024691358024691,0,0,0.08024691358024691,64.19753086419753,0)" xlink:href="#az"/><use transform="matrix(0.08024691358024691,0,0,0.08024691358024691,70.53703703703704,0)" xlink:href="#aH"/><use transform="matrix(0.08024691358024691,0,0,0.08024691358024691,94.53086419753086,0)" xlink:href="#aI"/></g><g id="p"><use transform="matrix(0.08024691358024691,0,0,0.08024691358024691,0,0)" xlink:href="#aM"/><use transform="matrix(0.08024691358024691,0,0,0.08024691358024691,9.549382716049383,0)" xlink:href="#aI"/><use transform="matrix(0.08024691358024691,0,0,0.08024691358024691,25.598765432098762,0)" xlink:href="#aN"/><use transform="matrix(0.08024691358024691,0,0,0.08024691358024691,41.64814814814815,0)" xlink:href="#aI"/><use transform="matrix(0.08024691358024691,0,0,0.08024691358024691,57.697530864197525,0)" xlink:href="#aw"/><use transform="matrix(0.08024691358024691,0,0,0.08024691358024691,73.74691358024691,0)" xlink:href="#av"/><use transform="matrix(0.08024691358024691,0,0,0.08024691358024691,81.77160493827161,0)" xlink:href="#ay"/><use transform="matrix(0.08024691358024691,0,0,0.08024691358024691,97.82098765432099,0)" xlink:href="#av"/><use transform="matrix(0.08024691358024691,0,0,0.08024691358024691,105.8456790123457,0)" xlink:href="#az"/><use transform="matrix(0.08024691358024691,0,0,0.08024691358024691,112.18518518518519,0)" xlink:href="#aH"/><use transform="matrix(0.08024691358024691,0,0,0.08024691358024691,136.179012345679,0)" xlink:href="#aI"/></g><path fill="#333" d="M108 0H70L1-190h34L89-25l56-165h34" id="aY"/><g id="q"><use transform="matrix(0.08024691358024691,0,0,0.08024691358024691,0,0)" xlink:href="#az"/><use transform="matrix(0.08024691358024691,0,0,0.08024691358024691,6.3395061728395055,0)" xlink:href="#aG"/><use transform="matrix(0.08024691358024691,0,0,0.08024691358024691,22.38888888888889,0)" xlink:href="#av"/><use transform="matrix(0.08024691358024691,0,0,0.08024691358024691,30.413580246913583,0)" xlink:href="#aI"/><use transform="matrix(0.08024691358024691,0,0,0.08024691358024691,46.46296296296296,0)" xlink:href="#aM"/><use transform="matrix(0.08024691358024691,0,0,0.08024691358024691,56.01234567901234,0)" xlink:href="#aY"/><use transform="matrix(0.08024691358024691,0,0,0.08024691358024691,70.45679012345678,0)" xlink:href="#aw"/><use transform="matrix(0.08024691358024691,0,0,0.08024691358024691,86.50617283950616,0)" xlink:href="#aJ"/></g><path fill="#333" d="M240-174c0 40-23 61-54 70L253 0h-59l-57-94H76V0H24v-248c93 4 217-23 216 74zM76-134c48-2 112 12 112-38 0-48-66-32-112-35v73" id="aZ"/><path fill="#333" d="M25 0v-261h50V0H25" id="ba"/><path fill="#333" d="M185-48c-13 30-37 53-82 52C43 2 14-33 14-96s30-98 90-98c62 0 83 45 84 108H66c0 31 8 55 39 56 18 0 30-7 34-22zm-45-69c5-46-57-63-70-21-2 6-4 13-4 21h74" id="bb"/><g id="r"><use transform="matrix(0.08024691358024691,0,0,0.08024691358024691,0,0)" xlink:href="#aZ"/><use transform="matrix(0.08024691358024691,0,0,0.08024691358024691,20.78395061728395,0)" xlink:href="#aR"/><use transform="matrix(0.08024691358024691,0,0,0.08024691358024691,38.358024691358025,0)" xlink:href="#ba"/><use transform="matrix(0.08024691358024691,0,0,0.08024691358024691,46.382716049382715,0)" xlink:href="#bb"/><use transform="matrix(0.08024691358024691,0,0,0.08024691358024691,62.4320987654321,0)" xlink:href="#au"/></g><g id="s"><use transform="matrix(0.08024691358024691,0,0,0.08024691358024691,0,0)" xlink:href="#aM"/><use transform="matrix(0.08024691358024691,0,0,0.08024691358024691,9.549382716049383,0)" xlink:href="#aO"/><use transform="matrix(0.08024691358024691,0,0,0.08024691358024691,25.598765432098762,0)" xlink:href="#aJ"/><use transform="matrix(0.08024691358024691,0,0,0.08024691358024691,31.938271604938276,0)" xlink:href="#aI"/><use transform="matrix(0.08024691358024691,0,0,0.08024691358024691,47.98765432098766,0)" xlink:href="#ay"/><use transform="matrix(0.08024691358024691,0,0,0.08024691358024691,64.03703703703704,0)" xlink:href="#az"/><use transform="matrix(0.08024691358024691,0,0,0.08024691358024691,70.37654320987654,0)" xlink:href="#aA"/><path fill="#333" d="M-1.44 2h89.3v2.12h-89.3z"/></g><g id="t"><use transform="matrix(0.08024691358024691,0,0,0.08024691358024691,0,0)" xlink:href="#az"/><use transform="matrix(0.08024691358024691,0,0,0.08024691358024691,6.3395061728395055,0)" xlink:href="#aA"/></g><g id="u"><use transform="matrix(0.08024691358024691,0,0,0.08024691358024691,0,0)" xlink:href="#aM"/><use transform="matrix(0.08024691358024691,0,0,0.08024691358024691,9.549382716049383,0)" xlink:href="#aO"/><use transform="matrix(0.08024691358024691,0,0,0.08024691358024691,25.598765432098762,0)" xlink:href="#aJ"/><use transform="matrix(0.08024691358024691,0,0,0.08024691358024691,31.938271604938276,0)" xlink:href="#aI"/><use transform="matrix(0.08024691358024691,0,0,0.08024691358024691,47.98765432098766,0)" xlink:href="#ay"/><use transform="matrix(0.08024691358024691,0,0,0.08024691358024691,64.03703703703704,0)" xlink:href="#aG"/><use transform="matrix(0.08024691358024691,0,0,0.08024691358024691,80.08641975308642,0)" xlink:href="#aw"/><use transform="matrix(0.08024691358024691,0,0,0.08024691358024691,96.1358024691358,0)" xlink:href="#aH"/><use transform="matrix(0.08024691358024691,0,0,0.08024691358024691,120.12962962962962,0)" xlink:href="#aI"/></g><path fill="#333" d="M27 0v-27h64v-190l-56 39v-29l58-41h29v221h61V0H27" id="bc"/><g id="v"><use transform="matrix(0.08024691358024691,0,0,0.08024691358024691,0,0)" xlink:href="#aF"/><use transform="matrix(0.08024691358024691,0,0,0.08024691358024691,19.25925925925926,0)" xlink:href="#bc"/></g><path fill="#333" d="M238-95c0 69-44 99-111 99C63 4 22-25 22-93v-155h51v151c-1 38 19 59 55 60 90 1 49-130 58-211h52v153" id="bd"/><path fill="#333" d="M135-150c-39-12-60 13-60 57V0H25l-1-190h47c2 13-1 29 3 40 6-28 27-53 61-41v41" id="be"/><g id="w"><use transform="matrix(0.0802469135802469,0,0,0.0802469135802469,0,0)" xlink:href="#bd"/><use transform="matrix(0.0802469135802469,0,0,0.0802469135802469,20.783950617283946,0)" xlink:href="#au"/><use transform="matrix(0.0802469135802469,0,0,0.0802469135802469,36.83333333333333,0)" xlink:href="#bb"/><use transform="matrix(0.0802469135802469,0,0,0.0802469135802469,52.8827160493827,0)" xlink:href="#be"/><use transform="matrix(0.0802469135802469,0,0,0.0802469135802469,64.11728395061728,0)" xlink:href="#au"/></g><path fill="#333" d="M84 4C-5 8 30-112 23-190h32v120c0 31 7 50 39 49 72-2 45-101 50-169h31l1 190h-30c-1-10 1-25-2-33-11 22-28 36-60 37" id="bf"/><g id="x"><use transform="matrix(0.08024691358024691,0,0,0.08024691358024691,0,0)" xlink:href="#bf"/><use transform="matrix(0.08024691358024691,0,0,0.08024691358024691,16.049382716049383,0)" xlink:href="#aK"/><use transform="matrix(0.08024691358024691,0,0,0.08024691358024691,30.493827160493826,0)" xlink:href="#aI"/><use transform="matrix(0.08024691358024691,0,0,0.08024691358024691,46.54320987654321,0)" xlink:href="#aM"/><use transform="matrix(0.08024691358024691,0,0,0.08024691358024691,56.092592592592595,0)" xlink:href="#ay"/><use transform="matrix(0.08024691358024691,0,0,0.08024691358024691,72.14197530864197,0)" xlink:href="#az"/><use transform="matrix(0.08024691358024691,0,0,0.08024691358024691,78.48148148148148,0)" xlink:href="#aA"/><path fill="#333" d="M-1.44 2h97.42v2.12H-1.44z"/></g><g id="y"><use transform="matrix(0.08024691358024691,0,0,0.08024691358024691,0,0)" xlink:href="#bf"/><use transform="matrix(0.08024691358024691,0,0,0.08024691358024691,16.049382716049383,0)" xlink:href="#aK"/><use transform="matrix(0.08024691358024691,0,0,0.08024691358024691,30.493827160493826,0)" xlink:href="#aI"/><use transform="matrix(0.08024691358024691,0,0,0.08024691358024691,46.54320987654321,0)" xlink:href="#aM"/><use transform="matrix(0.08024691358024691,0,0,0.08024691358024691,56.092592592592595,0)" xlink:href="#ay"/><use transform="matrix(0.08024691358024691,0,0,0.08024691358024691,72.14197530864197,0)" xlink:href="#aG"/><use transform="matrix(0.08024691358024691,0,0,0.08024691358024691,88.19135802469135,0)" xlink:href="#aw"/><use transform="matrix(0.08024691358024691,0,0,0.08024691358024691,104.24074074074073,0)" xlink:href="#aH"/><use transform="matrix(0.08024691358024691,0,0,0.08024691358024691,128.23456790123456,0)" xlink:href="#aI"/></g><path fill="#333" d="M24-248c93 1 206-16 204 79-1 75-69 88-152 82V0H24v-248zm52 121c47 0 100 7 100-41 0-47-54-39-100-39v80" id="bg"/><g id="z"><use transform="matrix(0.0802469135802469,0,0,0.0802469135802469,0,0)" xlink:href="#bg"/><use transform="matrix(0.0802469135802469,0,0,0.0802469135802469,19.259259259259256,0)" xlink:href="#ba"/><use transform="matrix(0.0802469135802469,0,0,0.0802469135802469,27.283950617283946,0)" xlink:href="#as"/><use transform="matrix(0.0802469135802469,0,0,0.0802469135802469,43.333333333333336,0)" xlink:href="#aV"/><use transform="matrix(0.0802469135802469,0,0,0.0802469135802469,59.382716049382715,0)" xlink:href="#bb"/><use transform="matrix(0.0802469135802469,0,0,0.0802469135802469,75.43209876543209,0)" xlink:href="#au"/></g><g id="A"><use transform="matrix(0.08024691358024691,0,0,0.08024691358024691,0,0)" xlink:href="#aN"/><use transform="matrix(0.08024691358024691,0,0,0.08024691358024691,16.049382716049383,0)" xlink:href="#aJ"/><use transform="matrix(0.08024691358024691,0,0,0.08024691358024691,22.38888888888889,0)" xlink:href="#aw"/><use transform="matrix(0.08024691358024691,0,0,0.08024691358024691,38.43827160493827,0)" xlink:href="#aL"/><use transform="matrix(0.08024691358024691,0,0,0.08024691358024691,52.882716049382715,0)" xlink:href="#aI"/><use transform="matrix(0.08024691358024691,0,0,0.08024691358024691,68.9320987654321,0)" xlink:href="#ay"/><use transform="matrix(0.08024691358024691,0,0,0.08024691358024691,84.98148148148148,0)" xlink:href="#az"/><use transform="matrix(0.08024691358024691,0,0,0.08024691358024691,91.32098765432099,0)" xlink:href="#aA"/><path fill="#333" d="M-1.44 2h110.26v2.12H-1.44z"/></g><g id="B"><use transform="matrix(0.08024691358024691,0,0,0.08024691358024691,0,0)" xlink:href="#aJ"/><use transform="matrix(0.08024691358024691,0,0,0.08024691358024691,6.3395061728395055,0)" xlink:href="#aO"/><use transform="matrix(0.08024691358024691,0,0,0.08024691358024691,22.38888888888889,0)" xlink:href="#aL"/><use transform="matrix(0.08024691358024691,0,0,0.08024691358024691,36.83333333333333,0)" xlink:href="#aw"/><use transform="matrix(0.08024691358024691,0,0,0.08024691358024691,52.8827160493827,0)" xlink:href="#av"/><use transform="matrix(0.08024691358024691,0,0,0.08024691358024691,60.9074074074074,0)" xlink:href="#az"/><use transform="matrix(0.08024691358024691,0,0,0.08024691358024691,67.2469135802469,0)" xlink:href="#aO"/><use transform="matrix(0.08024691358024691,0,0,0.08024691358024691,83.29629629629628,0)" xlink:href="#aG"/></g><path fill="#333" d="M147 0L96-86 75-71V0H25v-261h50v150l67-79h53l-66 74L201 0h-54" id="bh"/><g id="C"><use transform="matrix(0.08024691358024688,0,0,0.08024691358024688,0,0)" xlink:href="#ar"/><use transform="matrix(0.08024691358024688,0,0,0.08024691358024688,15.4074074074074,0)" xlink:href="#as"/><use transform="matrix(0.08024691358024688,0,0,0.08024691358024688,31.456790123456777,0)" xlink:href="#au"/><use transform="matrix(0.08024691358024688,0,0,0.08024691358024688,47.506172839506156,0)" xlink:href="#bh"/><use transform="matrix(0.08024691358024688,0,0,0.08024691358024688,63.55555555555553,0)" xlink:href="#au"/></g><path fill="#333" d="M143 0L79-87 56-68V0H24v-261h32v163l83-92h37l-77 82L181 0h-38" id="bi"/><g id="D"><use transform="matrix(0.0802469135802469,0,0,0.0802469135802469,0,0)" xlink:href="#av"/><use transform="matrix(0.0802469135802469,0,0,0.0802469135802469,8.02469135802469,0)" xlink:href="#aw"/><use transform="matrix(0.0802469135802469,0,0,0.0802469135802469,24.07407407407407,0)" xlink:href="#aK"/><use transform="matrix(0.0802469135802469,0,0,0.0802469135802469,38.51851851851851,0)" xlink:href="#bi"/><use transform="matrix(0.0802469135802469,0,0,0.0802469135802469,52.96296296296295,0)" xlink:href="#ay"/><use transform="matrix(0.0802469135802469,0,0,0.0802469135802469,69.01234567901233,0)" xlink:href="#az"/><use transform="matrix(0.0802469135802469,0,0,0.0802469135802469,75.35185185185183,0)" xlink:href="#aA"/><path fill="#333" d="M-1.44 2h94.3v2.12h-94.3z"/></g><g id="E"><use transform="matrix(0.0802469135802469,0,0,0.0802469135802469,0,0)" xlink:href="#aB"/><use transform="matrix(0.0802469135802469,0,0,0.0802469135802469,16.04938271604938,0)" xlink:href="#az"/><use transform="matrix(0.0802469135802469,0,0,0.0802469135802469,22.388888888888882,0)" xlink:href="#aA"/></g><g id="F"><use transform="matrix(0.0802469135802469,0,0,0.0802469135802469,0,0)" xlink:href="#aC"/><use transform="matrix(0.0802469135802469,0,0,0.0802469135802469,23.993827160493822,0)" xlink:href="#aD"/></g><g id="G"><use transform="matrix(0.0802469135802469,0,0,0.0802469135802469,0,0)" xlink:href="#aE"/><use transform="matrix(0.0802469135802469,0,0,0.0802469135802469,19.259259259259256,0)" xlink:href="#aF"/></g><g id="H"><use transform="matrix(0.0802469135802469,0,0,0.0802469135802469,0,0)" xlink:href="#av"/><use transform="matrix(0.0802469135802469,0,0,0.0802469135802469,8.02469135802469,0)" xlink:href="#az"/><use transform="matrix(0.0802469135802469,0,0,0.0802469135802469,14.364197530864194,0)" xlink:href="#av"/><use transform="matrix(0.0802469135802469,0,0,0.0802469135802469,22.388888888888882,0)" xlink:href="#aJ"/><use transform="matrix(0.0802469135802469,0,0,0.0802469135802469,28.728395061728392,0)" xlink:href="#aI"/></g><use transform="matrix(0.0802469135802469,0,0,0.0802469135802469,0,0)" xlink:href="#aC" id="I"/><g id="J"><use transform="matrix(0.0802469135802469,0,0,0.0802469135802469,0,0)" xlink:href="#aA"/><use transform="matrix(0.0802469135802469,0,0,0.0802469135802469,16.04938271604938,0)" xlink:href="#aI"/><use transform="matrix(0.0802469135802469,0,0,0.0802469135802469,32.09876543209876,0)" xlink:href="#aK"/><use transform="matrix(0.0802469135802469,0,0,0.0802469135802469,46.5432098765432,0)" xlink:href="#aL"/><use transform="matrix(0.0802469135802469,0,0,0.0802469135802469,60.98765432098764,0)" xlink:href="#aM"/><use transform="matrix(0.0802469135802469,0,0,0.0802469135802469,70.53703703703702,0)" xlink:href="#az"/><use transform="matrix(0.0802469135802469,0,0,0.0802469135802469,76.87654320987653,0)" xlink:href="#aN"/><use transform="matrix(0.0802469135802469,0,0,0.0802469135802469,92.92592592592591,0)" xlink:href="#av"/><use transform="matrix(0.0802469135802469,0,0,0.0802469135802469,100.9506172839506,0)" xlink:href="#az"/><use transform="matrix(0.0802469135802469,0,0,0.0802469135802469,107.29012345679011,0)" xlink:href="#aO"/><use transform="matrix(0.0802469135802469,0,0,0.0802469135802469,123.33950617283949,0)" xlink:href="#aG"/></g><g id="K"><use transform="matrix(0.0802469135802469,0,0,0.0802469135802469,0,0)" xlink:href="#av"/><use transform="matrix(0.0802469135802469,0,0,0.0802469135802469,8.02469135802469,0)" xlink:href="#aI"/><use transform="matrix(0.0802469135802469,0,0,0.0802469135802469,24.07407407407407,0)" xlink:href="#aP"/><use transform="matrix(0.0802469135802469,0,0,0.0802469135802469,38.51851851851851,0)" xlink:href="#av"/></g><path fill="#333" d="M179-190L93 31C79 59 56 82 12 73V49c39 6 53-20 64-50L1-190h34L92-34l54-156h33" id="bj"/><g id="L"><use transform="matrix(0.0802469135802469,0,0,0.0802469135802469,0,0)" xlink:href="#aI"/><use transform="matrix(0.0802469135802469,0,0,0.0802469135802469,16.04938271604938,0)" xlink:href="#aP"/><use transform="matrix(0.0802469135802469,0,0,0.0802469135802469,30.49382716049382,0)" xlink:href="#aN"/><use transform="matrix(0.0802469135802469,0,0,0.0802469135802469,46.5432098765432,0)" xlink:href="#az"/><use transform="matrix(0.0802469135802469,0,0,0.0802469135802469,52.8827160493827,0)" xlink:href="#aM"/><use transform="matrix(0.0802469135802469,0,0,0.0802469135802469,62.43209876543209,0)" xlink:href="#bj"/><use transform="matrix(0.0802469135802469,0,0,0.0802469135802469,76.87654320987653,0)" xlink:href="#ay"/><use transform="matrix(0.0802469135802469,0,0,0.0802469135802469,92.92592592592591,0)" xlink:href="#aA"/><use transform="matrix(0.0802469135802469,0,0,0.0802469135802469,108.97530864197529,0)" xlink:href="#aw"/><use transform="matrix(0.0802469135802469,0,0,0.0802469135802469,125.02469135802467,0)" xlink:href="#av"/><use transform="matrix(0.0802469135802469,0,0,0.0802469135802469,133.04938271604937,0)" xlink:href="#aI"/></g><g id="M"><use transform="matrix(0.0802469135802469,0,0,0.0802469135802469,0,0)" xlink:href="#aA"/><use transform="matrix(0.0802469135802469,0,0,0.0802469135802469,16.04938271604938,0)" xlink:href="#aw"/><use transform="matrix(0.0802469135802469,0,0,0.0802469135802469,32.09876543209876,0)" xlink:href="#av"/><use transform="matrix(0.0802469135802469,0,0,0.0802469135802469,40.12345679012345,0)" xlink:href="#aI"/><use transform="matrix(0.0802469135802469,0,0,0.0802469135802469,56.17283950617283,0)" xlink:href="#av"/><use transform="matrix(0.0802469135802469,0,0,0.0802469135802469,64.19753086419752,0)" xlink:href="#az"/><use transform="matrix(0.0802469135802469,0,0,0.0802469135802469,70.53703703703702,0)" xlink:href="#aH"/><use transform="matrix(0.0802469135802469,0,0,0.0802469135802469,94.53086419753085,0)" xlink:href="#aI"/></g><g id="N"><use transform="matrix(0.0802469135802469,0,0,0.0802469135802469,0,0)" xlink:href="#aQ"/><use transform="matrix(0.0802469135802469,0,0,0.0802469135802469,20.783950617283946,0)" xlink:href="#aR"/><use transform="matrix(0.0802469135802469,0,0,0.0802469135802469,38.35802469135801,0)" xlink:href="#aS"/><use transform="matrix(0.0802469135802469,0,0,0.0802469135802469,47.90740740740739,0)" xlink:href="#bb"/><use transform="matrix(0.0802469135802469,0,0,0.0802469135802469,63.95679012345676,0)" xlink:href="#au"/></g><g id="O"><use transform="matrix(0.08024691358024691,0,0,0.08024691358024691,0,0)" xlink:href="#aG"/><use transform="matrix(0.08024691358024691,0,0,0.08024691358024691,16.049382716049383,0)" xlink:href="#aO"/><use transform="matrix(0.08024691358024691,0,0,0.08024691358024691,32.098765432098766,0)" xlink:href="#av"/><use transform="matrix(0.08024691358024691,0,0,0.08024691358024691,40.123456790123456,0)" xlink:href="#aI"/><use transform="matrix(0.08024691358024691,0,0,0.08024691358024691,56.172839506172835,0)" xlink:href="#ay"/><use transform="matrix(0.08024691358024691,0,0,0.08024691358024691,72.22222222222221,0)" xlink:href="#az"/><use transform="matrix(0.08024691358024691,0,0,0.08024691358024691,78.56172839506172,0)" xlink:href="#aA"/><path fill="#333" d="M-1.44 2h97.5v2.12h-97.5z"/></g><g id="P"><use transform="matrix(0.08024691358024691,0,0,0.08024691358024691,0,0)" xlink:href="#aH"/><use transform="matrix(0.08024691358024691,0,0,0.08024691358024691,23.993827160493826,0)" xlink:href="#aO"/><use transform="matrix(0.08024691358024691,0,0,0.08024691358024691,40.04320987654321,0)" xlink:href="#aA"/><use transform="matrix(0.08024691358024691,0,0,0.08024691358024691,56.092592592592595,0)" xlink:href="#az"/><use transform="matrix(0.08024691358024691,0,0,0.08024691358024691,62.4320987654321,0)" xlink:href="#aX"/><use transform="matrix(0.08024691358024691,0,0,0.08024691358024691,70.4567901234568,0)" xlink:href="#az"/><use transform="matrix(0.08024691358024691,0,0,0.08024691358024691,76.7962962962963,0)" xlink:href="#aL"/><use transform="matrix(0.08024691358024691,0,0,0.08024691358024691,91.24074074074075,0)" xlink:href="#aw"/><use transform="matrix(0.08024691358024691,0,0,0.08024691358024691,107.29012345679014,0)" xlink:href="#av"/><use transform="matrix(0.08024691358024691,0,0,0.08024691358024691,115.31481481481482,0)" xlink:href="#az"/><use transform="matrix(0.08024691358024691,0,0,0.08024691358024691,121.65432098765433,0)" xlink:href="#aO"/><use transform="matrix(0.08024691358024691,0,0,0.08024691358024691,137.70370370370372,0)" xlink:href="#aG"/><use transform="matrix(0.08024691358024691,0,0,0.08024691358024691,153.75308641975312,0)" xlink:href="#ay"/><use transform="matrix(0.08024691358024691,0,0,0.08024691358024691,169.80246913580248,0)" xlink:href="#aA"/><use transform="matrix(0.08024691358024691,0,0,0.08024691358024691,185.8518518518519,0)" xlink:href="#aw"/><use transform="matrix(0.08024691358024691,0,0,0.08024691358024691,201.9012345679013,0)" xlink:href="#av"/><use transform="matrix(0.08024691358024691,0,0,0.08024691358024691,209.92592592592598,0)" xlink:href="#aI"/></g><g id="Q"><use transform="matrix(0.08024691358024691,0,0,0.08024691358024691,0,0)" xlink:href="#aM"/><use transform="matrix(0.08024691358024691,0,0,0.08024691358024691,9.549382716049383,0)" xlink:href="#aI"/><use transform="matrix(0.08024691358024691,0,0,0.08024691358024691,25.598765432098762,0)" xlink:href="#aJ"/><use transform="matrix(0.08024691358024691,0,0,0.08024691358024691,31.938271604938276,0)" xlink:href="#aw"/><use transform="matrix(0.08024691358024691,0,0,0.08024691358024691,47.98765432098766,0)" xlink:href="#av"/><use transform="matrix(0.08024691358024691,0,0,0.08024691358024691,56.01234567901235,0)" xlink:href="#aI"/><use transform="matrix(0.08024691358024691,0,0,0.08024691358024691,72.06172839506173,0)" xlink:href="#aA"/><use transform="matrix(0.08024691358024691,0,0,0.08024691358024691,88.1111111111111,0)" xlink:href="#ay"/><use transform="matrix(0.08024691358024691,0,0,0.08024691358024691,104.1604938271605,0)" xlink:href="#aA"/><use transform="matrix(0.08024691358024691,0,0,0.08024691358024691,120.20987654320987,0)" xlink:href="#aw"/><use transform="matrix(0.08024691358024691,0,0,0.08024691358024691,136.25925925925927,0)" xlink:href="#av"/><use transform="matrix(0.08024691358024691,0,0,0.08024691358024691,144.28395061728395,0)" xlink:href="#aI"/></g><path fill="#333" d="M25-224v-37h50v37H25zM75 22c2 45-34 59-81 51V38c22 5 31-5 31-27v-201h50V22" id="bk"/><g id="R"><use transform="matrix(0.0802469135802469,0,0,0.0802469135802469,0,0)" xlink:href="#bg"/><use transform="matrix(0.0802469135802469,0,0,0.0802469135802469,19.259259259259256,0)" xlink:href="#be"/><use transform="matrix(0.0802469135802469,0,0,0.0802469135802469,30.49382716049382,0)" xlink:href="#aR"/><use transform="matrix(0.0802469135802469,0,0,0.0802469135802469,48.06790123456789,0)" xlink:href="#bk"/><use transform="matrix(0.0802469135802469,0,0,0.0802469135802469,56.09259259259258,0)" xlink:href="#bb"/><use transform="matrix(0.0802469135802469,0,0,0.0802469135802469,72.14197530864196,0)" xlink:href="#aV"/><use transform="matrix(0.0802469135802469,0,0,0.0802469135802469,88.19135802469134,0)" xlink:href="#aS"/><use transform="matrix(0.0802469135802469,0,0,0.0802469135802469,97.74074074074072,0)" xlink:href="#au"/></g><path fill="#333" d="M24-231v-30h32v30H24zM-9 49c24 4 33-6 33-30v-209h32V24c2 40-23 58-65 49V49" id="bl"/><g id="S"><use transform="matrix(0.08024691358024691,0,0,0.08024691358024691,0,0)" xlink:href="#aN"/><use transform="matrix(0.08024691358024691,0,0,0.08024691358024691,16.049382716049383,0)" xlink:href="#aM"/><use transform="matrix(0.08024691358024691,0,0,0.08024691358024691,25.598765432098762,0)" xlink:href="#aO"/><use transform="matrix(0.08024691358024691,0,0,0.08024691358024691,41.64814814814815,0)" xlink:href="#bl"/><use transform="matrix(0.08024691358024691,0,0,0.08024691358024691,47.98765432098766,0)" xlink:href="#aI"/><use transform="matrix(0.08024691358024691,0,0,0.08024691358024691,64.03703703703704,0)" xlink:href="#aL"/><use transform="matrix(0.08024691358024691,0,0,0.08024691358024691,78.48148148148148,0)" xlink:href="#av"/><use transform="matrix(0.08024691358024691,0,0,0.08024691358024691,86.50617283950619,0)" xlink:href="#ay"/><use transform="matrix(0.08024691358024691,0,0,0.08024691358024691,102.55555555555554,0)" xlink:href="#az"/><use transform="matrix(0.08024691358024691,0,0,0.08024691358024691,108.89506172839505,0)" xlink:href="#aA"/><path fill="#333" d="M-1.44 2H126.4v2.12H-1.45z"/></g><g id="T"><use transform="matrix(0.08641975308641972,0,0,0.08641975308641972,0,0)" xlink:href="#aV"/><use transform="matrix(0.08641975308641972,0,0,0.08641975308641972,17.283950617283946,0)" xlink:href="#be"/><use transform="matrix(0.08641975308641972,0,0,0.08641975308641972,29.38271604938271,0)" xlink:href="#bb"/><use transform="matrix(0.08641975308641972,0,0,0.08641975308641972,46.66666666666666,0)" xlink:href="#as"/><use transform="matrix(0.08641975308641972,0,0,0.08641975308641972,63.950617283950606,0)" xlink:href="#aS"/><use transform="matrix(0.08641975308641972,0,0,0.08641975308641972,74.23456790123456,0)" xlink:href="#aR"/><use transform="matrix(0.08641975308641972,0,0,0.08641975308641972,93.16049382716048,0)" xlink:href="#be"/></g><path fill="#333" d="M85 4C-2 5 27-109 22-190h50c7 57-23 150 33 157 60-5 35-97 40-157h50l1 190h-47c-2-12 1-28-3-38-12 25-28 42-61 42" id="bm"/><path fill="#333" d="M135-194c52 0 70 43 70 98 0 56-19 99-73 100-30 1-46-15-58-35L72 0H24l1-261h50v104c11-23 29-37 60-37zM114-30c31 0 40-27 40-66 0-37-7-63-39-63s-41 28-41 65c0 36 8 64 40 64" id="bn"/><path fill="#333" d="M88-194c31-1 46 15 58 34l-1-101h50l1 261h-48c-2-10 0-23-3-31C134-8 116 4 84 4 32 4 16-41 15-95c0-56 19-97 73-99zm17 164c33 0 40-30 41-66 1-37-9-64-41-64s-38 30-39 65c0 43 13 65 39 65" id="bo"/><g id="U"><use transform="matrix(0.0864197530864197,0,0,0.0864197530864197,0,0)" xlink:href="#au"/><use transform="matrix(0.0864197530864197,0,0,0.0864197530864197,17.283950617283942,0)" xlink:href="#bm"/><use transform="matrix(0.0864197530864197,0,0,0.0864197530864197,36.20987654320986,0)" xlink:href="#bn"/><use transform="matrix(0.0864197530864197,0,0,0.0864197530864197,55.135802469135776,0)" xlink:href="#au"/><use transform="matrix(0.0864197530864197,0,0,0.0864197530864197,72.41975308641972,0)" xlink:href="#aV"/><use transform="matrix(0.0864197530864197,0,0,0.0864197530864197,89.70370370370368,0)" xlink:href="#be"/><use transform="matrix(0.0864197530864197,0,0,0.0864197530864197,101.80246913580244,0)" xlink:href="#aT"/><use transform="matrix(0.0864197530864197,0,0,0.0864197530864197,110.4444444444444,0)" xlink:href="#bn"/><use transform="matrix(0.0864197530864197,0,0,0.0864197530864197,129.37037037037032,0)" xlink:href="#bb"/><use transform="matrix(0.0864197530864197,0,0,0.0864197530864197,146.65432098765427,0)" xlink:href="#bo"/></g><g id="V"><use transform="matrix(0.0864197530864197,0,0,0.0864197530864197,0,0)" xlink:href="#aR"/><use transform="matrix(0.0864197530864197,0,0,0.0864197530864197,18.925925925925917,0)" xlink:href="#aW"/></g><g id="W"><use transform="matrix(0.07407407407407407,0,0,0.07407407407407407,0,0)" xlink:href="#bd"/><use transform="matrix(0.07407407407407407,0,0,0.07407407407407407,19.185185185185183,0)" xlink:href="#au"/><use transform="matrix(0.07407407407407407,0,0,0.07407407407407407,34,0)" xlink:href="#bb"/><use transform="matrix(0.07407407407407407,0,0,0.07407407407407407,48.81481481481481,0)" xlink:href="#be"/><use transform="matrix(0.07407407407407407,0,0,0.07407407407407407,59.185185185185176,0)" xlink:href="#aZ"/><use transform="matrix(0.07407407407407407,0,0,0.07407407407407407,78.37037037037035,0)" xlink:href="#aR"/><use transform="matrix(0.07407407407407407,0,0,0.07407407407407407,94.59259259259258,0)" xlink:href="#ba"/><use transform="matrix(0.07407407407407407,0,0,0.07407407407407407,101.99999999999997,0)" xlink:href="#bb"/><use transform="matrix(0.07407407407407407,0,0,0.07407407407407407,116.8148148148148,0)" xlink:href="#au"/></g><g id="X"><use transform="matrix(0.07407407407407407,0,0,0.07407407407407407,0,0)" xlink:href="#ax"/><use transform="matrix(0.07407407407407407,0,0,0.07407407407407407,14.814814814814813,0)" xlink:href="#aM"/><use transform="matrix(0.07407407407407407,0,0,0.07407407407407407,23.629629629629623,0)" xlink:href="#aw"/><use transform="matrix(0.07407407407407407,0,0,0.07407407407407407,38.44444444444444,0)" xlink:href="#aG"/><use transform="matrix(0.07407407407407407,0,0,0.07407407407407407,53.25925925925926,0)" xlink:href="#av"/><use transform="matrix(0.07407407407407407,0,0,0.07407407407407407,60.66666666666666,0)" xlink:href="#ay"/><use transform="matrix(0.07407407407407407,0,0,0.07407407407407407,75.48148148148147,0)" xlink:href="#aA"/><use transform="matrix(0.07407407407407407,0,0,0.07407407407407407,90.29629629629628,0)" xlink:href="#aw"/><use transform="matrix(0.07407407407407407,0,0,0.07407407407407407,105.11111111111109,0)" xlink:href="#av"/><use transform="matrix(0.07407407407407407,0,0,0.07407407407407407,112.51851851851849,0)" xlink:href="#aI"/></g><g id="Y"><use transform="matrix(0.07407407407407407,0,0,0.07407407407407407,0,0)" xlink:href="#aA"/><use transform="matrix(0.07407407407407407,0,0,0.07407407407407407,14.814814814814813,0)" xlink:href="#aw"/><use transform="matrix(0.07407407407407407,0,0,0.07407407407407407,29.629629629629626,0)" xlink:href="#av"/><use transform="matrix(0.07407407407407407,0,0,0.07407407407407407,37.03703703703703,0)" xlink:href="#aI"/><use transform="matrix(0.07407407407407407,0,0,0.07407407407407407,51.85185185185185,0)" xlink:href="#av"/><use transform="matrix(0.07407407407407407,0,0,0.07407407407407407,59.25925925925925,0)" xlink:href="#az"/><use transform="matrix(0.07407407407407407,0,0,0.07407407407407407,65.1111111111111,0)" xlink:href="#aH"/><use transform="matrix(0.07407407407407407,0,0,0.07407407407407407,87.25925925925924,0)" xlink:href="#aI"/></g><use transform="matrix(0.07407407407407407,0,0,0.07407407407407407,0,0)" xlink:href="#aC" id="Z"/><path fill="#333" d="M169-182c-1-43-94-46-97-3 18 66 151 10 154 114 3 95-165 93-204 36-6-8-10-19-12-30l50-8c3 46 112 56 116 5-17-69-150-10-154-114-4-87 153-88 188-35 5 8 8 18 10 28" id="bp"/><path fill="#333" d="M128 0H69L1-190h53L99-40l48-150h52" id="bq"/><g id="aa"><use transform="matrix(0.08024691358024691,0,0,0.08024691358024691,0,0)" xlink:href="#aQ"/><use transform="matrix(0.08024691358024691,0,0,0.08024691358024691,20.78395061728395,0)" xlink:href="#aR"/><use transform="matrix(0.08024691358024691,0,0,0.08024691358024691,38.358024691358025,0)" xlink:href="#aS"/><use transform="matrix(0.08024691358024691,0,0,0.08024691358024691,47.907407407407405,0)" xlink:href="#aT"/><use transform="matrix(0.08024691358024691,0,0,0.08024691358024691,55.932098765432094,0)" xlink:href="#aU"/><use transform="matrix(0.08024691358024691,0,0,0.08024691358024691,65.48148148148148,0)" xlink:href="#aT"/><use transform="matrix(0.08024691358024691,0,0,0.08024691358024691,73.50617283950618,0)" xlink:href="#aV"/><use transform="matrix(0.08024691358024691,0,0,0.08024691358024691,89.55555555555556,0)" xlink:href="#as"/><use transform="matrix(0.08024691358024691,0,0,0.08024691358024691,105.60493827160494,0)" xlink:href="#aS"/><use transform="matrix(0.08024691358024691,0,0,0.08024691358024691,115.15432098765432,0)" xlink:href="#aT"/><use transform="matrix(0.08024691358024691,0,0,0.08024691358024691,123.179012345679,0)" xlink:href="#aR"/><use transform="matrix(0.08024691358024691,0,0,0.08024691358024691,140.7530864197531,0)" xlink:href="#aW"/><use transform="matrix(0.08024691358024691,0,0,0.08024691358024691,158.32716049382717,0)" xlink:href="#bp"/><use transform="matrix(0.08024691358024691,0,0,0.08024691358024691,177.58641975308646,0)" xlink:href="#bb"/><use transform="matrix(0.08024691358024691,0,0,0.08024691358024691,193.63580246913583,0)" xlink:href="#bq"/><use transform="matrix(0.08024691358024691,0,0,0.08024691358024691,209.68518518518522,0)" xlink:href="#bb"/><use transform="matrix(0.08024691358024691,0,0,0.08024691358024691,225.73456790123464,0)" xlink:href="#be"/><use transform="matrix(0.08024691358024691,0,0,0.08024691358024691,236.96913580246917,0)" xlink:href="#aT"/><use transform="matrix(0.08024691358024691,0,0,0.08024691358024691,244.99382716049385,0)" xlink:href="#aS"/><use transform="matrix(0.08024691358024691,0,0,0.08024691358024691,254.54320987654324,0)" xlink:href="#aT"/><use transform="matrix(0.08024691358024691,0,0,0.08024691358024691,262.56790123456796,0)" xlink:href="#bb"/><use transform="matrix(0.08024691358024691,0,0,0.08024691358024691,278.6172839506173,0)" xlink:href="#au"/></g><g id="ab"><use transform="matrix(0.08024691358024691,0,0,0.08024691358024691,0,0)" xlink:href="#aK"/><use transform="matrix(0.08024691358024691,0,0,0.08024691358024691,14.444444444444443,0)" xlink:href="#aI"/><use transform="matrix(0.08024691358024691,0,0,0.08024691358024691,30.493827160493826,0)" xlink:href="#aY"/><use transform="matrix(0.08024691358024691,0,0,0.08024691358024691,44.93827160493827,0)" xlink:href="#aI"/><use transform="matrix(0.08024691358024691,0,0,0.08024691358024691,60.987654320987644,0)" xlink:href="#aM"/><use transform="matrix(0.08024691358024691,0,0,0.08024691358024691,70.53703703703702,0)" xlink:href="#az"/><use transform="matrix(0.08024691358024691,0,0,0.08024691358024691,76.87654320987653,0)" xlink:href="#av"/><use transform="matrix(0.08024691358024691,0,0,0.08024691358024691,84.90123456790123,0)" xlink:href="#bj"/><use transform="matrix(0.08024691358024691,0,0,0.08024691358024691,99.34567901234567,0)" xlink:href="#ay"/><use transform="matrix(0.08024691358024691,0,0,0.08024691358024691,115.39506172839505,0)" xlink:href="#az"/><use transform="matrix(0.08024691358024691,0,0,0.08024691358024691,121.73456790123456,0)" xlink:href="#aA"/><path fill="#333" d="M-1.44 2h140.67v2.12H-1.44z"/></g><g id="ac"><use transform="matrix(0.08024691358024691,0,0,0.08024691358024691,0,0)" xlink:href="#ar"/><use transform="matrix(0.08024691358024691,0,0,0.08024691358024691,15.407407407407407,0)" xlink:href="#as"/><use transform="matrix(0.08024691358024691,0,0,0.08024691358024691,31.45679012345679,0)" xlink:href="#au"/><use transform="matrix(0.08024691358024691,0,0,0.08024691358024691,47.50617283950618,0)" xlink:href="#bh"/><use transform="matrix(0.08024691358024691,0,0,0.08024691358024691,63.555555555555564,0)" xlink:href="#bg"/><use transform="matrix(0.08024691358024691,0,0,0.08024691358024691,82.81481481481481,0)" xlink:href="#be"/><use transform="matrix(0.08024691358024691,0,0,0.08024691358024691,94.04938271604938,0)" xlink:href="#aR"/><use transform="matrix(0.08024691358024691,0,0,0.08024691358024691,111.62345679012346,0)" xlink:href="#aV"/><use transform="matrix(0.08024691358024691,0,0,0.08024691358024691,127.67283950617283,0)" xlink:href="#bb"/><use transform="matrix(0.08024691358024691,0,0,0.08024691358024691,143.72222222222223,0)" xlink:href="#au"/><use transform="matrix(0.08024691358024691,0,0,0.08024691358024691,159.77160493827162,0)" xlink:href="#au"/><use transform="matrix(0.08024691358024691,0,0,0.08024691358024691,175.82098765432102,0)" xlink:href="#bp"/><use transform="matrix(0.08024691358024691,0,0,0.08024691358024691,195.08024691358028,0)" xlink:href="#aS"/><use transform="matrix(0.08024691358024691,0,0,0.08024691358024691,204.6296296296297,0)" xlink:href="#as"/><use transform="matrix(0.08024691358024691,0,0,0.08024691358024691,220.67901234567907,0)" xlink:href="#aS"/><use transform="matrix(0.08024691358024691,0,0,0.08024691358024691,230.22839506172846,0)" xlink:href="#bb"/><use transform="matrix(0.08024691358024691,0,0,0.08024691358024691,246.27777777777789,0)" xlink:href="#au"/></g><g id="ad"><use transform="matrix(0.08024691358024691,0,0,0.08024691358024691,0,0)" xlink:href="#aN"/><use transform="matrix(0.08024691358024691,0,0,0.08024691358024691,16.049382716049383,0)" xlink:href="#aM"/><use transform="matrix(0.08024691358024691,0,0,0.08024691358024691,25.598765432098762,0)" xlink:href="#aO"/><use transform="matrix(0.08024691358024691,0,0,0.08024691358024691,41.64814814814815,0)" xlink:href="#aL"/><use transform="matrix(0.08024691358024691,0,0,0.08024691358024691,56.092592592592595,0)" xlink:href="#aI"/><use transform="matrix(0.08024691358024691,0,0,0.08024691358024691,72.14197530864197,0)" xlink:href="#aK"/><use transform="matrix(0.08024691358024691,0,0,0.08024691358024691,86.58641975308642,0)" xlink:href="#aK"/><use transform="matrix(0.08024691358024691,0,0,0.08024691358024691,101.03086419753086,0)" xlink:href="#ay"/><use transform="matrix(0.08024691358024691,0,0,0.08024691358024691,117.08024691358024,0)" xlink:href="#aK"/><use transform="matrix(0.08024691358024691,0,0,0.08024691358024691,131.52469135802468,0)" xlink:href="#av"/><use transform="matrix(0.08024691358024691,0,0,0.08024691358024691,139.54938271604937,0)" xlink:href="#aw"/><use transform="matrix(0.08024691358024691,0,0,0.08024691358024691,155.59876543209876,0)" xlink:href="#av"/><use transform="matrix(0.08024691358024691,0,0,0.08024691358024691,163.62345679012344,0)" xlink:href="#aI"/><use transform="matrix(0.08024691358024691,0,0,0.08024691358024691,179.67283950617283,0)" xlink:href="#ay"/><use transform="matrix(0.08024691358024691,0,0,0.08024691358024691,195.7222222222222,0)" xlink:href="#az"/><use transform="matrix(0.08024691358024691,0,0,0.08024691358024691,202.06172839506172,0)" xlink:href="#aA"/><path fill="#333" d="M-1.44 2h221v2.12h-221z"/></g><path fill="#333" d="M220-157c-53 9-28 100-34 157h-49v-107c1-27-5-49-29-50C55-147 81-57 75 0H25l-1-190h47c2 12-1 28 3 38 10-53 101-56 108 0 13-22 24-43 59-42 82 1 51 116 57 194h-49v-107c-1-25-5-48-29-50" id="br"/><path fill="#333" d="M230 0l2-204L168 0h-37L68-204 70 0H24v-248h70l56 185 57-185h69V0h-46" id="bs"/><g id="ae"><use transform="matrix(0.07407407407407407,0,0,0.07407407407407407,0,0)" xlink:href="#bg"/><use transform="matrix(0.07407407407407407,0,0,0.07407407407407407,17.77777777777778,0)" xlink:href="#be"/><use transform="matrix(0.07407407407407407,0,0,0.07407407407407407,28.148148148148152,0)" xlink:href="#aR"/><use transform="matrix(0.07407407407407407,0,0,0.07407407407407407,44.37037037037037,0)" xlink:href="#bk"/><use transform="matrix(0.07407407407407407,0,0,0.07407407407407407,51.77777777777777,0)" xlink:href="#bb"/><use transform="matrix(0.07407407407407407,0,0,0.07407407407407407,66.59259259259258,0)" xlink:href="#aV"/><use transform="matrix(0.07407407407407407,0,0,0.07407407407407407,81.40740740740739,0)" xlink:href="#aS"/><use transform="matrix(0.07407407407407407,0,0,0.07407407407407407,90.2222222222222,0)" xlink:href="#ar"/><use transform="matrix(0.07407407407407407,0,0,0.07407407407407407,104.44444444444443,0)" xlink:href="#bb"/><use transform="matrix(0.07407407407407407,0,0,0.07407407407407407,119.25925925925924,0)" xlink:href="#as"/><use transform="matrix(0.07407407407407407,0,0,0.07407407407407407,134.07407407407405,0)" xlink:href="#br"/><use transform="matrix(0.07407407407407407,0,0,0.07407407407407407,157.77777777777774,0)" xlink:href="#bs"/><use transform="matrix(0.07407407407407407,0,0,0.07407407407407407,179.9259259259259,0)" xlink:href="#bb"/><use transform="matrix(0.07407407407407407,0,0,0.07407407407407407,194.7407407407407,0)" xlink:href="#br"/><use transform="matrix(0.07407407407407407,0,0,0.07407407407407407,218.4444444444444,0)" xlink:href="#bn"/><use transform="matrix(0.07407407407407407,0,0,0.07407407407407407,234.66666666666663,0)" xlink:href="#bb"/><use transform="matrix(0.07407407407407407,0,0,0.07407407407407407,249.48148148148144,0)" xlink:href="#be"/><use transform="matrix(0.07407407407407407,0,0,0.07407407407407407,259.8518518518518,0)" xlink:href="#au"/></g><g id="af"><use transform="matrix(0.07407407407407407,0,0,0.07407407407407407,0,0)" xlink:href="#bl"/><use transform="matrix(0.07407407407407407,0,0,0.07407407407407407,5.851851851851851,0)" xlink:href="#aO"/><use transform="matrix(0.07407407407407407,0,0,0.07407407407407407,20.666666666666664,0)" xlink:href="#az"/><use transform="matrix(0.07407407407407407,0,0,0.07407407407407407,26.518518518518515,0)" xlink:href="#aG"/><use transform="matrix(0.07407407407407407,0,0,0.07407407407407407,41.33333333333333,0)" xlink:href="#ay"/><use transform="matrix(0.07407407407407407,0,0,0.07407407407407407,56.14814814814814,0)" xlink:href="#aA"/><use transform="matrix(0.07407407407407407,0,0,0.07407407407407407,70.96296296296295,0)" xlink:href="#aw"/><use transform="matrix(0.07407407407407407,0,0,0.07407407407407407,85.77777777777776,0)" xlink:href="#av"/><use transform="matrix(0.07407407407407407,0,0,0.07407407407407407,93.18518518518516,0)" xlink:href="#aI"/></g><g id="ag"><use transform="matrix(0.08024691358024691,0,0,0.08024691358024691,0,0)" xlink:href="#bg"/><use transform="matrix(0.08024691358024691,0,0,0.08024691358024691,19.25925925925926,0)" xlink:href="#be"/><use transform="matrix(0.08024691358024691,0,0,0.08024691358024691,30.49382716049383,0)" xlink:href="#aR"/><use transform="matrix(0.08024691358024691,0,0,0.08024691358024691,48.0679012345679,0)" xlink:href="#bk"/><use transform="matrix(0.08024691358024691,0,0,0.08024691358024691,56.09259259259259,0)" xlink:href="#bb"/><use transform="matrix(0.08024691358024691,0,0,0.08024691358024691,72.14197530864197,0)" xlink:href="#aV"/><use transform="matrix(0.08024691358024691,0,0,0.08024691358024691,88.19135802469135,0)" xlink:href="#aS"/><use transform="matrix(0.08024691358024691,0,0,0.08024691358024691,97.74074074074073,0)" xlink:href="#ar"/><use transform="matrix(0.08024691358024691,0,0,0.08024691358024691,113.14814814814814,0)" xlink:href="#as"/><use transform="matrix(0.08024691358024691,0,0,0.08024691358024691,129.19753086419752,0)" xlink:href="#au"/><use transform="matrix(0.08024691358024691,0,0,0.08024691358024691,145.2469135802469,0)" xlink:href="#bh"/><use transform="matrix(0.08024691358024691,0,0,0.08024691358024691,161.2962962962963,0)" xlink:href="#au"/></g><g id="ah"><use transform="matrix(0.08641975308641973,0,0,0.08641975308641973,0,0)" xlink:href="#as"/><use transform="matrix(0.08641975308641973,0,0,0.08641975308641973,17.283950617283946,0)" xlink:href="#au"/><use transform="matrix(0.08641975308641973,0,0,0.08641975308641973,34.56790123456789,0)" xlink:href="#au"/><use transform="matrix(0.08641975308641973,0,0,0.08641975308641973,51.85185185185183,0)" xlink:href="#aT"/><use transform="matrix(0.08641975308641973,0,0,0.08641975308641973,60.4938271604938,0)" xlink:href="#at"/><use transform="matrix(0.08641975308641973,0,0,0.08641975308641973,79.41975308641973,0)" xlink:href="#aW"/><use transform="matrix(0.08641975308641973,0,0,0.08641975308641973,98.34567901234566,0)" xlink:href="#bb"/><use transform="matrix(0.08641975308641973,0,0,0.08641975308641973,115.6296296296296,0)" xlink:href="#bb"/></g><path fill="#333" d="M197 0v-219H63V0H30v-248h201V0h-34" id="bt"/><path fill="#333" d="M100-194c62-1 85 37 85 99 1 63-27 99-86 99S16-35 15-95c0-66 28-99 85-99zM99-20c44 1 53-31 53-75 0-43-8-75-51-75s-53 32-53 75 10 74 51 75" id="bu"/><g id="ai"><use transform="matrix(0.08641975308641973,0,0,0.08641975308641973,0,0)" xlink:href="#bt"/><use transform="matrix(0.08641975308641973,0,0,0.08641975308641973,22.29629629629629,0)" xlink:href="#bu"/></g><path fill="#333" d="M240 0l2-218c-23 76-54 145-80 218h-23L58-218 59 0H30v-248h44l77 211c21-75 51-140 76-211h43V0h-30" id="bv"/><path fill="#333" d="M100-194c63 0 86 42 84 106H49c0 40 14 67 53 68 26 1 43-12 49-29l28 8c-11 28-37 45-77 45C44 4 14-33 15-96c1-61 26-98 85-98zm52 81c6-60-76-77-97-28-3 7-6 17-6 28h103" id="bw"/><path fill="#333" d="M115-194c55 1 70 41 70 98S169 2 115 4C84 4 66-9 55-30l1 105H24l-1-265h31l2 30c10-21 28-34 59-34zm-8 174c40 0 45-34 45-75s-6-73-45-74c-42 0-51 32-51 76 0 43 10 73 51 73" id="bx"/><path fill="#333" d="M96-169c-40 0-48 33-48 73s9 75 48 75c24 0 41-14 43-38l32 2c-6 37-31 61-74 61-59 0-76-41-82-99-10-93 101-131 147-64 4 7 5 14 7 22l-32 3c-4-21-16-35-41-35" id="by"/><g id="aj"><use transform="matrix(0.08641975308641973,0,0,0.08641975308641973,0,0)" xlink:href="#bv"/><use transform="matrix(0.08641975308641973,0,0,0.08641975308641973,26.18518518518518,0)" xlink:href="#bw"/><use transform="matrix(0.08641975308641973,0,0,0.08641975308641973,43.469135802469125,0)" xlink:href="#bx"/><use transform="matrix(0.08641975308641973,0,0,0.08641975308641973,60.753086419753075,0)" xlink:href="#bw"/><use transform="matrix(0.08641975308641973,0,0,0.08641975308641973,78.03703703703702,0)" xlink:href="#by"/></g><g id="ak"><use transform="matrix(0.0864197530864197,0,0,0.0864197530864197,0,0)" xlink:href="#bt"/><use transform="matrix(0.0864197530864197,0,0,0.0864197530864197,22.296296296296283,0)" xlink:href="#bu"/></g><path fill="#333" d="M62-147c-4 58 76 40 115 32v-133h34V0h-34v-89C118-74 28-68 28-143v-105h34v101" id="bz"/><path fill="#333" d="M57-190v80h85v-80h32V0h-32v-87H57V0H25v-190h32" id="bA"/><path fill="#333" d="M179-190L93 31C79 59 56 82 12 73V49c39 6 53-20 64-50L1-190h34L92-34l54-156h33" id="bB"/><g id="al"><use transform="matrix(0.0864197530864197,0,0,0.0864197530864197,0,0)" xlink:href="#bz"/><use transform="matrix(0.0864197530864197,0,0,0.0864197530864197,20.65432098765431,0)" xlink:href="#bw"/><use transform="matrix(0.0864197530864197,0,0,0.0864197530864197,37.93827160493825,0)" xlink:href="#bA"/><use transform="matrix(0.0864197530864197,0,0,0.0864197530864197,55.04938271604935,0)" xlink:href="#bB"/></g><path fill="#333" d="M199 0l-22-63H83L61 0H9l90-248h61L250 0h-51zm-33-102l-36-108c-10 38-24 72-36 108h72" id="bC"/><g id="am"><use transform="matrix(0.07407407407407407,0,0,0.07407407407407407,0,0)" xlink:href="#ar"/><use transform="matrix(0.07407407407407407,0,0,0.07407407407407407,14.222222222222221,0)" xlink:href="#as"/><use transform="matrix(0.07407407407407407,0,0,0.07407407407407407,29.037037037037035,0)" xlink:href="#au"/><use transform="matrix(0.07407407407407407,0,0,0.07407407407407407,43.85185185185185,0)" xlink:href="#bh"/><use transform="matrix(0.07407407407407407,0,0,0.07407407407407407,58.66666666666666,0)" xlink:href="#bg"/><use transform="matrix(0.07407407407407407,0,0,0.07407407407407407,76.44444444444443,0)" xlink:href="#be"/><use transform="matrix(0.07407407407407407,0,0,0.07407407407407407,86.8148148148148,0)" xlink:href="#aR"/><use transform="matrix(0.07407407407407407,0,0,0.07407407407407407,103.03703703703701,0)" xlink:href="#aV"/><use transform="matrix(0.07407407407407407,0,0,0.07407407407407407,117.8518518518518,0)" xlink:href="#bb"/><use transform="matrix(0.07407407407407407,0,0,0.07407407407407407,132.66666666666663,0)" xlink:href="#au"/><use transform="matrix(0.07407407407407407,0,0,0.07407407407407407,147.48148148148144,0)" xlink:href="#au"/><use transform="matrix(0.07407407407407407,0,0,0.07407407407407407,162.29629629629625,0)" xlink:href="#bp"/><use transform="matrix(0.07407407407407407,0,0,0.07407407407407407,180.07407407407402,0)" xlink:href="#aS"/><use transform="matrix(0.07407407407407407,0,0,0.07407407407407407,188.88888888888886,0)" xlink:href="#as"/><use transform="matrix(0.07407407407407407,0,0,0.07407407407407407,203.70370370370364,0)" xlink:href="#aS"/><use transform="matrix(0.07407407407407407,0,0,0.07407407407407407,212.51851851851845,0)" xlink:href="#bb"/><use transform="matrix(0.07407407407407407,0,0,0.07407407407407407,227.33333333333326,0)" xlink:href="#bC"/><use transform="matrix(0.07407407407407407,0,0,0.07407407407407407,246.51851851851845,0)" xlink:href="#au"/><use transform="matrix(0.07407407407407407,0,0,0.07407407407407407,261.33333333333326,0)" xlink:href="#au"/><use transform="matrix(0.07407407407407407,0,0,0.07407407407407407,276.1481481481481,0)" xlink:href="#aT"/><use transform="matrix(0.07407407407407407,0,0,0.07407407407407407,283.5555555555555,0)" xlink:href="#at"/><use transform="matrix(0.07407407407407407,0,0,0.07407407407407407,299.7777777777777,0)" xlink:href="#aW"/><use transform="matrix(0.07407407407407407,0,0,0.07407407407407407,315.99999999999994,0)" xlink:href="#br"/><use transform="matrix(0.07407407407407407,0,0,0.07407407407407407,339.70370370370364,0)" xlink:href="#bb"/><use transform="matrix(0.07407407407407407,0,0,0.07407407407407407,354.5185185185185,0)" xlink:href="#aW"/><use transform="matrix(0.07407407407407407,0,0,0.07407407407407407,370.7407407407407,0)" xlink:href="#aS"/><use transform="matrix(0.07407407407407407,0,0,0.07407407407407407,379.55555555555554,0)" xlink:href="#au"/></g><g id="an"><use transform="matrix(0.07407407407407406,0,0,0.07407407407407406,0,0)" xlink:href="#aw"/><use transform="matrix(0.07407407407407406,0,0,0.07407407407407406,14.814814814814811,0)" xlink:href="#aK"/><use transform="matrix(0.07407407407407406,0,0,0.07407407407407406,28.14814814814814,0)" xlink:href="#aK"/><use transform="matrix(0.07407407407407406,0,0,0.07407407407407406,41.481481481481474,0)" xlink:href="#az"/><use transform="matrix(0.07407407407407406,0,0,0.07407407407407406,47.33333333333332,0)" xlink:href="#ax"/><use transform="matrix(0.07407407407407406,0,0,0.07407407407407406,62.14814814814813,0)" xlink:href="#aG"/><use transform="matrix(0.07407407407407406,0,0,0.07407407407407406,76.96296296296295,0)" xlink:href="#aH"/><use transform="matrix(0.07407407407407406,0,0,0.07407407407407406,99.11111111111109,0)" xlink:href="#aI"/><use transform="matrix(0.07407407407407406,0,0,0.07407407407407406,113.9259259259259,0)" xlink:href="#aG"/><use transform="matrix(0.07407407407407406,0,0,0.07407407407407406,128.7407407407407,0)" xlink:href="#av"/><use transform="matrix(0.07407407407407406,0,0,0.07407407407407406,136.14814814814812,0)" xlink:href="#ay"/><use transform="matrix(0.07407407407407406,0,0,0.07407407407407406,150.96296296296293,0)" xlink:href="#aA"/><use transform="matrix(0.07407407407407406,0,0,0.07407407407407406,165.77777777777774,0)" xlink:href="#aw"/><use transform="matrix(0.07407407407407406,0,0,0.07407407407407406,180.59259259259255,0)" xlink:href="#av"/><use transform="matrix(0.07407407407407406,0,0,0.07407407407407406,188,0)" xlink:href="#aI"/></g><path fill="#333" d="M67-125c0 53 21 87 73 88 37 1 54-22 65-47l45 17C233-25 199 4 140 4 58 4 20-42 15-125 8-235 124-281 211-232c18 10 29 29 36 50l-46 12c-8-25-30-41-62-41-52 0-71 34-72 86" id="bD"/><g id="ao"><use transform="matrix(0.07407407407407407,0,0,0.07407407407407407,0,0)" xlink:href="#ar"/><use transform="matrix(0.07407407407407407,0,0,0.07407407407407407,14.222222222222221,0)" xlink:href="#as"/><use transform="matrix(0.07407407407407407,0,0,0.07407407407407407,29.037037037037035,0)" xlink:href="#au"/><use transform="matrix(0.07407407407407407,0,0,0.07407407407407407,43.85185185185185,0)" xlink:href="#bh"/><use transform="matrix(0.07407407407407407,0,0,0.07407407407407407,58.66666666666666,0)" xlink:href="#bD"/><use transform="matrix(0.07407407407407407,0,0,0.07407407407407407,77.85185185185185,0)" xlink:href="#be"/><use transform="matrix(0.07407407407407407,0,0,0.07407407407407407,88.22222222222221,0)" xlink:href="#bb"/><use transform="matrix(0.07407407407407407,0,0,0.07407407407407407,103.03703703703704,0)" xlink:href="#as"/><use transform="matrix(0.07407407407407407,0,0,0.07407407407407407,117.85185185185183,0)" xlink:href="#aS"/><use transform="matrix(0.07407407407407407,0,0,0.07407407407407407,126.66666666666664,0)" xlink:href="#aR"/><use transform="matrix(0.07407407407407407,0,0,0.07407407407407407,142.88888888888886,0)" xlink:href="#be"/><use transform="matrix(0.07407407407407407,0,0,0.07407407407407407,153.25925925925924,0)" xlink:href="#au"/></g><g id="ap"><use transform="matrix(0.0802469135802469,0,0,0.0802469135802469,0,0)" xlink:href="#aL"/><use transform="matrix(0.0802469135802469,0,0,0.0802469135802469,14.444444444444441,0)" xlink:href="#aM"/><use transform="matrix(0.0802469135802469,0,0,0.0802469135802469,23.993827160493822,0)" xlink:href="#aI"/><use transform="matrix(0.0802469135802469,0,0,0.0802469135802469,40.0432098765432,0)" xlink:href="#aw"/><use transform="matrix(0.0802469135802469,0,0,0.0802469135802469,56.09259259259258,0)" xlink:href="#av"/><use transform="matrix(0.0802469135802469,0,0,0.0802469135802469,64.11728395061726,0)" xlink:href="#az"/><use transform="matrix(0.0802469135802469,0,0,0.0802469135802469,70.45679012345677,0)" xlink:href="#aO"/><use transform="matrix(0.0802469135802469,0,0,0.0802469135802469,86.50617283950615,0)" xlink:href="#aG"/><use transform="matrix(0.0802469135802469,0,0,0.0802469135802469,102.55555555555553,0)" xlink:href="#ay"/><use transform="matrix(0.0802469135802469,0,0,0.0802469135802469,118.60493827160491,0)" xlink:href="#aA"/><use transform="matrix(0.0802469135802469,0,0,0.0802469135802469,134.65432098765427,0)" xlink:href="#aw"/><use transform="matrix(0.0802469135802469,0,0,0.0802469135802469,150.70370370370364,0)" xlink:href="#av"/><use transform="matrix(0.0802469135802469,0,0,0.0802469135802469,158.72839506172832,0)" xlink:href="#aI"/></g><g id="aq"><use transform="matrix(0.07407407407407407,0,0,0.07407407407407407,0,0)" xlink:href="#aQ"/><use transform="matrix(0.07407407407407407,0,0,0.07407407407407407,19.185185185185183,0)" xlink:href="#aR"/><use transform="matrix(0.07407407407407407,0,0,0.07407407407407407,35.407407407407405,0)" xlink:href="#aS"/><use transform="matrix(0.07407407407407407,0,0,0.07407407407407407,44.22222222222222,0)" xlink:href="#bb"/><use transform="matrix(0.07407407407407407,0,0,0.07407407407407407,59.037037037037045,0)" xlink:href="#bD"/><use transform="matrix(0.07407407407407407,0,0,0.07407407407407407,78.22222222222223,0)" xlink:href="#be"/><use transform="matrix(0.07407407407407407,0,0,0.07407407407407407,88.59259259259258,0)" xlink:href="#bb"/><use transform="matrix(0.07407407407407407,0,0,0.07407407407407407,103.4074074074074,0)" xlink:href="#as"/><use transform="matrix(0.07407407407407407,0,0,0.07407407407407407,118.22222222222221,0)" xlink:href="#aS"/><use transform="matrix(0.07407407407407407,0,0,0.07407407407407407,127.03703703703702,0)" xlink:href="#aR"/><use transform="matrix(0.07407407407407407,0,0,0.07407407407407407,143.25925925925924,0)" xlink:href="#be"/><use transform="matrix(0.07407407407407407,0,0,0.07407407407407407,153.62962962962962,0)" xlink:href="#au"/></g></defs></g></svg>